<?xml version="1.0" encoding="UTF-8" standalone="no"?>
<svg
   width="2387.5869"
   height="1855.4912"
   xml:space="preserve"
   overflow="hidden"
   version="1.1"
   id="svg501"
   sodipodi:docname="holccg.svg"
   inkscape:version="1.2.1 (9c6d41e410, 2022-07-14)"
   xmlns:inkscape="http://www.inkscape.org/namespaces/inkscape"
   xmlns:sodipodi="http://sodipodi.sourceforge.net/DTD/sodipodi-0.dtd"
   xmlns="http://www.w3.org/2000/svg"
   xmlns:svg="http://www.w3.org/2000/svg"><sodipodi:namedview
     id="namedview503"
     pagecolor="#ffffff"
     bordercolor="#000000"
     borderopacity="0.25"
     inkscape:showpageshadow="2"
     inkscape:pageopacity="0.0"
     inkscape:pagecheckerboard="0"
     inkscape:deskcolor="#d1d1d1"
     showgrid="false"
     inkscape:zoom="0.41336761"
     inkscape:cx="1209.5771"
     inkscape:cy="280.62189"
     inkscape:window-width="1920"
     inkscape:window-height="991"
     inkscape:window-x="-9"
     inkscape:window-y="-9"
     inkscape:window-maximized="1"
     inkscape:current-layer="svg501" /><defs
     id="defs95"><clipPath
       id="clip0"><rect
         x="963"
         y="269"
         width="2465"
         height="1945"
         id="rect2" /></clipPath><clipPath
       id="clip1"><rect
         x="2036"
         y="1610"
         width="137"
         height="50"
         id="rect5" /></clipPath><clipPath
       id="clip2"><rect
         x="2036"
         y="1610"
         width="137"
         height="50"
         id="rect8" /></clipPath><clipPath
       id="clip3"><rect
         x="2036"
         y="1610"
         width="137"
         height="50"
         id="rect11" /></clipPath><clipPath
       id="clip4"><rect
         x="2347"
         y="1610"
         width="136"
         height="50"
         id="rect14" /></clipPath><clipPath
       id="clip5"><rect
         x="2347"
         y="1610"
         width="136"
         height="50"
         id="rect17" /></clipPath><clipPath
       id="clip6"><rect
         x="2347"
         y="1610"
         width="136"
         height="50"
         id="rect20" /></clipPath><clipPath
       id="clip7"><rect
         x="2698"
         y="1609"
         width="136"
         height="49"
         id="rect23" /></clipPath><clipPath
       id="clip8"><rect
         x="2698"
         y="1609"
         width="136"
         height="49"
         id="rect26" /></clipPath><clipPath
       id="clip9"><rect
         x="2698"
         y="1609"
         width="136"
         height="49"
         id="rect29" /></clipPath><clipPath
       id="clip10"><rect
         x="1548"
         y="1359"
         width="138"
         height="52"
         id="rect32" /></clipPath><clipPath
       id="clip11"><rect
         x="1548"
         y="1359"
         width="138"
         height="52"
         id="rect35" /></clipPath><clipPath
       id="clip12"><rect
         x="1548"
         y="1359"
         width="138"
         height="52"
         id="rect38" /></clipPath><clipPath
       id="clip13"><rect
         x="2333"
         y="1078"
         width="137"
         height="50"
         id="rect41" /></clipPath><clipPath
       id="clip14"><rect
         x="2333"
         y="1078"
         width="137"
         height="50"
         id="rect44" /></clipPath><clipPath
       id="clip15"><rect
         x="2333"
         y="1078"
         width="137"
         height="50"
         id="rect47" /></clipPath><clipPath
       id="clip16"><rect
         x="2523"
         y="1348"
         width="136"
         height="51"
         id="rect50" /></clipPath><clipPath
       id="clip17"><rect
         x="2523"
         y="1348"
         width="136"
         height="51"
         id="rect53" /></clipPath><clipPath
       id="clip18"><rect
         x="2523"
         y="1348"
         width="136"
         height="51"
         id="rect56" /></clipPath><clipPath
       id="clip19"><rect
         x="2054"
         y="1005"
         width="138"
         height="50"
         id="rect59" /></clipPath><clipPath
       id="clip20"><rect
         x="2054"
         y="1005"
         width="138"
         height="50"
         id="rect62" /></clipPath><clipPath
       id="clip21"><rect
         x="2054"
         y="1005"
         width="138"
         height="50"
         id="rect65" /></clipPath><clipPath
       id="clip22"><rect
         x="1355"
         y="1609"
         width="136"
         height="49"
         id="rect68" /></clipPath><clipPath
       id="clip23"><rect
         x="1355"
         y="1609"
         width="136"
         height="49"
         id="rect71" /></clipPath><clipPath
       id="clip24"><rect
         x="1355"
         y="1609"
         width="136"
         height="49"
         id="rect74" /></clipPath><clipPath
       id="clip25"><rect
         x="1706"
         y="1609"
         width="137"
         height="49"
         id="rect77" /></clipPath><clipPath
       id="clip26"><rect
         x="1706"
         y="1609"
         width="137"
         height="49"
         id="rect80" /></clipPath><clipPath
       id="clip27"><rect
         x="1706"
         y="1609"
         width="137"
         height="49"
         id="rect83" /></clipPath><clipPath
       id="clip28"><rect
         x="1877"
         y="1360"
         width="138"
         height="52"
         id="rect86" /></clipPath><clipPath
       id="clip29"><rect
         x="1877"
         y="1360"
         width="138"
         height="52"
         id="rect89" /></clipPath><clipPath
       id="clip30"><rect
         x="1877"
         y="1360"
         width="138"
         height="52"
         id="rect92" /></clipPath></defs><g
     clip-path="url(#clip0)"
     transform="translate(-984.77239,-319.80223)"
     id="g499"><rect
       x="963"
       y="269"
       width="2465"
       height="1930"
       fill="#ffffff"
       id="rect97" /><path
       d="M 0.663879,-0.933916 255.583,180.276 254.255,182.144 -0.663879,0.933916 Z M 259.15,167.348 l 14.447,27.14 -30.38,-4.726 z"
       transform="matrix(1,0,0,-1,2002,1525.49)"
       id="path99" /><path
       d="M 6.36574e-6,-1.14583 42.044,-1.1456 V 1.14607 L -6.36574e-6,1.14583 Z M 37.4607,-13.7498 64.9606,3.60892e-4 37.4606,13.7502 Z"
       transform="matrix(-1,0,0,1,2402.96,1310)"
       id="path101" /><path
       d="m 2298.98,1273.01 -0.09,-47.09 2.3,-0.01 0.08,47.09 z m -12.68,-42.49 13.7,-27.52 13.8,27.48 z"
       id="path103" /><path
       d="m 2265,1306 c 0,-19.33 16.34,-35 36.5,-35 20.16,0 36.5,15.67 36.5,35 0,19.33 -16.34,35 -36.5,35 -20.16,0 -36.5,-15.67 -36.5,-35 z"
       stroke="#000000"
       stroke-width="2.29167"
       stroke-linejoin="round"
       stroke-miterlimit="10"
       fill="none"
       fill-rule="evenodd"
       id="path105" /><path
       d="m 2301.46,1287.74 h 2.47 l 2.47,13.62 13.9,-1.9 0.77,2.39 -12.24,6.56 6.12,12.65 -1.98,1.46 -10.13,-9.65 -10.01,9.73 -2.07,-1.46 6.08,-12.52 -12.36,-6.61 0.77,-2.35 13.78,1.86 z"
       fill-rule="evenodd"
       id="path107" /><text
       fill="#000000"
       fill-opacity="0"
       font-family="Arial, Arial_MSFontService, sans-serif"
       font-size="34.8535px"
       x="2284.48"
       y="1318.24"
       id="text109">⋆</text><path
       d="M 0.414506,-1.06823 447.18,172.29 446.351,174.427 -0.414506,1.06823 Z M 447.466,158.882 l 20.664,22.767 -30.612,2.87 z"
       transform="matrix(1,0,0,-1,1516,1284.65)"
       id="path111" /><path
       d="m 2300.12,1150.83 -241.75,-42.71 0.4,-2.26 241.75,42.71 z m -239.43,-29.5 -24.69,-18.33 29.47,-8.76 z"
       id="path113" /><path
       d="M 1.13961,-1.15202 1.32524,33.1305 -0.966391,33.143 -1.15202,-1.13961 Z M 13.9044,28.479 0.30351,56.0531 -13.5952,28.6279 Z"
       transform="matrix(1,0,0,-1,2010,1043.05)"
       id="path115" /><path
       d="m 1973,1078 c 0,-19.33 16.57,-35 37,-35 20.43,0 37,15.67 37,35 0,19.33 -16.57,35 -37,35 -20.43,0 -37,-15.67 -37,-35 z"
       stroke="#000000"
       stroke-width="2.29167"
       stroke-linejoin="round"
       stroke-miterlimit="10"
       fill="none"
       fill-rule="evenodd"
       id="path117" /><path
       d="m 2008.6,1060.42 h 2.48 l 2.47,13.62 13.9,-1.9 0.77,2.39 -12.24,6.56 6.12,12.65 -1.99,1.46 -10.13,-9.65 -10.01,9.73 -2.07,-1.46 6.08,-12.52 -12.36,-6.61 0.77,-2.35 13.78,1.86 z"
       fill-rule="evenodd"
       id="path119" /><text
       fill="#000000"
       fill-opacity="0"
       font-family="Arial, Arial_MSFontService, sans-serif"
       font-size="34.8535px"
       x="1991.62"
       y="1090.92"
       id="text121">⋆</text><path
       d="m 1673.62,1528.75 -110.85,-58.1 1.06,-2.03 110.85,58.1 z M 1560.98,1483.94 1543,1459 l 30.74,0.59 z"
       id="path123" /><path
       d="M 0.5007,-1.03065 121.445,57.7252 120.443,59.7865 -0.5007,1.03065 Z M 122.83,44.3853 l 18.727,24.3846 -30.744,0.3509 z"
       transform="matrix(1,0,0,-1,1349,1527.77)"
       id="path125" /><path
       d="m 1515.07,1399.96 -0.13,-36.04 2.29,-0.01 0.13,36.04 z m -12.72,-31.41 13.65,-27.55 13.85,27.45 z"
       id="path127" /><path
       d="m 1479,1434 c 0,-19.33 16.57,-35 37,-35 20.43,0 37,15.67 37,35 0,19.33 -16.57,35 -37,35 -20.43,0 -37,-15.67 -37,-35 z"
       stroke="#000000"
       stroke-width="2.29167"
       stroke-linejoin="round"
       stroke-miterlimit="10"
       fill="none"
       fill-rule="evenodd"
       id="path129" /><path
       d="m 1514.42,1417.6 h 2.47 l 2.47,13.62 13.9,-1.91 0.77,2.39 -12.23,6.57 6.11,12.64 -1.98,1.46 -10.13,-9.64 -10.01,9.72 -2.07,-1.46 6.08,-12.52 -12.36,-6.61 0.77,-2.35 13.78,1.87 z"
       fill-rule="evenodd"
       id="path131" /><text
       fill="#000000"
       fill-opacity="0"
       font-family="Arial, Arial_MSFontService, sans-serif"
       font-size="34.8535px"
       x="1497.4399"
       y="1448.1"
       id="text133">⋆</text><path
       d="M 0.442813,-1.05681 144.312,59.2256 143.426,61.3392 -0.442813,1.05681 Z M 144.956,45.8294 l 20.049,23.3093 -30.677,2.0542 z"
       transform="matrix(1,0,0,-1,2315,1526.14)"
       id="path135" /><path
       d="m 2634.08,1527.94 -83.79,-57.09 1.29,-1.89 83.79,57.09 z m -87.1,-44.09 -14.98,-26.85 30.47,4.12 z"
       id="path137" /><path
       d="M 1.1375,-1.15411 1.38966,33.6307 -0.90195,33.6473 -1.15411,-1.1375 Z M 13.9603,28.9561 0.409974,56.5551 -13.539,29.1555 Z"
       transform="matrix(1,0,0,-1,2506,1396.56)"
       id="path139" /><path
       d="m 2469,1432 c 0,-19.33 16.57,-35 37,-35 20.43,0 37,15.67 37,35 0,19.33 -16.57,35 -37,35 -20.43,0 -37,-15.67 -37,-35 z"
       stroke="#000000"
       stroke-width="2.29167"
       stroke-linejoin="round"
       stroke-miterlimit="10"
       fill="none"
       fill-rule="evenodd"
       id="path141" /><path
       d="m 2503.95,1415.32 h 2.47 l 2.47,13.62 13.9,-1.9 0.77,2.39 -12.24,6.56 6.12,12.65 -1.98,1.46 -10.14,-9.65 -10.01,9.73 -2.06,-1.46 6.08,-12.52 -12.36,-6.61 0.77,-2.35 13.77,1.86 z"
       fill-rule="evenodd"
       id="path143" /><text
       fill="#000000"
       fill-opacity="0"
       font-family="Arial, Arial_MSFontService, sans-serif"
       font-size="34.8535px"
       x="2486.97"
       y="1445.8199"
       id="text145">⋆</text><path
       d="m 1350.15,1580.81 v 18.34 h -2.3 v -18.34 z m 0,25.21 v 18.34 h -2.3 v -18.34 z m 0,25.21 v 18.33 h -2.3 v -18.33 z m 0,25.21 v 18.33 h -2.3 v -18.33 z m 0,25.21 v 18.33 h -2.3 v -18.33 z m 0,25.21 v 18.33 h -2.3 v -18.33 z m 0,25.2 v 18.34 h -2.3 v -18.34 z m 0,25.21 v 3.23 l -1.15,-1.15 h 15.11 v 2.29 h -16.26 v -4.37 z m 20.83,2.08 h 18.34 v 2.29 h -18.34 z m 25.21,0 h 18.33 v 2.29 h -18.33 z m 25.21,0 h 18.33 v 2.29 h -18.33 z m 25.21,0 h 18.33 v 2.29 h -18.33 z m 25.21,0 h 18.33 v 2.29 h -18.33 z m 25.2,0 h 18.34 v 2.29 h -18.34 z m 25.21,0 h 18.34 v 2.29 h -18.34 z m 25.21,0 h 18.33 v 2.29 h -18.33 z m 25.21,0 h 18.33 v 2.29 h -18.33 z m 25.21,0 h 18.33 v 2.29 h -18.33 z m 25.21,0 h 18.33 v 2.29 h -18.33 z m 25.2,0 h 18.34 v 2.29 h -18.34 z m 25.21,0 h 18.34 v 2.29 h -18.34 z m 25.21,0 h 18.33 v 2.29 h -18.33 z m 25.21,0 h 18.33 v 2.29 h -18.33 z m 25.21,0 h 18.33 v 2.29 h -18.33 z m 25.21,0 h 18.33 v 2.29 h -18.33 z m 25.2,0 h 18.34 v 2.29 h -18.34 z m 25.21,0 h 18.34 v 2.29 h -18.34 z m 25.21,0 h 18.33 v 2.29 h -18.33 z m 25.21,0 h 18.33 v 2.29 h -18.33 z m 25.21,0 h 18.33 v 2.29 h -18.33 z m 25.21,0 h 18.33 v 2.29 h -18.33 z m 25.2,0 h 18.34 v 2.29 h -18.34 z m 25.21,0 h 18.34 v 2.29 h -18.34 z m 25.21,0 h 18.33 v 2.29 h -18.33 z m 25.21,0 h 18.33 v 2.29 h -18.33 z m 25.21,0 h 18.33 v 2.29 h -18.33 z m 25.21,0 h 18.33 v 2.29 h -18.33 z m 25.2,0 h 18.34 v 2.29 h -18.34 z m 25.21,0 h 18.34 v 2.29 h -18.34 z m 25.21,0 h 18.33 v 2.29 h -18.33 z m 25.21,0 h 18.33 v 2.29 h -18.33 z m 25.21,0 h 18.33 v 2.29 h -18.33 z m 25.21,0 h 18.33 v 2.29 h -18.33 z m 25.2,0 h 18.34 v 2.29 h -18.34 z m 25.21,0 h 18.34 v 2.29 h -18.34 z m 25.21,0 h 18.33 v 2.29 h -18.33 z m 25.21,0 h 18.33 v 2.29 h -18.33 z m 25.21,0 h 18.33 v 2.29 h -18.33 z m 25.21,0 h 18.33 v 2.29 h -18.33 z m 25.2,0 h 18.34 v 2.29 h -18.34 z m 25.21,0 h 18.34 v 2.29 h -18.34 z m 25.21,0 h 18.33 v 2.29 h -18.33 z m 25.21,0 h 18.33 v 2.29 h -18.33 z m 25.21,0 h 18.33 v 2.29 h -18.33 z m 25.21,0 h 18.33 v 2.29 h -18.33 z m 25.2,0 h 18.34 v 2.29 h -18.34 z m 25.21,0 h 18.34 v 2.29 h -18.34 z m 25.21,0 h 18.33 v 2.29 h -18.33 z m 25.21,0 h 18.33 v 2.29 h -18.33 z m 25.21,0 h 18.33 v 2.29 h -18.33 z m 25.21,0 h 18.33 v 2.29 h -18.33 z m 25.2,0 h 18.34 v 2.29 h -18.34 z m 25.21,0 h 18.34 v 2.29 h -18.34 z m 25.21,0 h 18.33 v 2.29 h -18.33 z m 25.21,0 h 18.33 v 2.29 h -18.33 z m 25.21,0 h 18.33 v 2.29 h -18.33 z m 25.21,0 h 18.33 v 2.29 h -18.33 z m 25.2,0 h 18.34 v 2.29 h -18.34 z m 25.21,0 h 18.34 v 2.29 h -18.34 z m 25.21,0 h 18.33 v 2.29 h -18.33 z m 25.21,0 h 18.33 v 2.29 h -18.33 z m 25.21,0 h 18.33 v 2.29 h -18.33 z m 25.21,0 h 18.33 v 2.29 h -18.33 z m 25.2,0 h 18.34 v 2.29 h -18.34 z m 25.21,0 h 18.34 v 2.29 h -18.34 z m 25.21,0 h 18.33 v 2.29 h -18.33 z m 25.21,0 h 18.33 v 2.29 h -18.33 z m 25.21,0 h 18.33 v 2.29 h -18.33 z m 25.21,0 h 18.33 v 2.29 h -18.33 z m 25.2,0 h 18.34 v 2.29 h -18.34 z m 25.21,0 h 18.34 v 2.29 h -18.34 z m 25.21,0 h 18.33 v 2.29 h -18.33 z m 25.21,0 h 18.33 v 2.29 h -18.33 z m 25.21,0 h 18.33 v 2.29 h -18.33 z m 25.21,0 h 6.05 l -1.15,1.15 v -12.28 h 2.3 v 13.42 h -7.2 z m 4.9,-18.01 0.01,-18.33 h 2.29 v 18.33 z m 0.01,-25.21 v -18.33 h 2.29 v 18.33 z m 0,-25.2 v -18.34 h 2.29 v 18.34 z m 0,-25.21 v -18.34 h 2.29 v 18.34 z m 0,-25.21 v -18.33 h 2.29 v 18.33 z m 0,-25.21 v -18.33 h 2.29 v 18.33 z m 0,-25.21 v -18.33 h 2.29 v 18.33 z m 0,-25.21 v -18.33 h 2.29 v 18.33 z m 0,-25.2 v -18.34 h 2.29 v 18.34 z m 0,-25.21 v -18.34 h 2.29 v 18.34 z m 0,-25.21 v -18.33 h 2.3 l -0.01,18.33 z m 0,-25.21 v -18.33 h 2.3 v 18.33 z m 0.01,-25.21 v -18.33 h 2.29 v 18.33 z m 0,-25.21 v -18.33 h 2.29 v 18.33 z m 0,-25.2 v -18.34 h 2.29 v 18.34 z m 0,-25.21 v -18.34 h 2.29 v 18.34 z m 0,-25.21 v -18.33 h 2.29 v 18.33 z m 0,-25.21 v -18.33 h 2.29 v 18.33 z m 0,-25.21 v -18.33 h 2.29 v 18.33 z m 0,-25.21 v -18.33 h 2.29 v 18.33 z m 0,-25.2 v -18.34 h 2.3 l -0.01,18.34 z m 0,-25.21 v -18.34 h 2.3 v 18.34 z m 0,-25.21 0.01,-18.33 h 2.29 v 18.33 z m 0.01,-25.21 v -18.33 h 2.29 v 18.33 z m 0,-25.21 v -18.33 h 2.29 v 18.33 z m 0,-25.21 v -18.33 h 2.29 v 18.33 z m 0,-25.2 v -18.34 h 2.29 v 18.34 z m 0,-25.21 v -18.34 h 2.29 v 18.34 z m 0,-25.21 v -18.33 h 2.29 v 18.33 z m 0,-25.21 v -18.333 l 2.29,10e-4 v 18.332 z m 0,-25.208 v -18.333 h 2.29 v 18.334 z m 0,-25.208 v -18.333 h 2.3 l -0.01,18.333 z m 0,-25.208 0.01,-18.334 2.29,10e-4 v 18.333 z m 0.01,-25.209 v -18.333 h 2.29 v 18.334 z m 0,-25.208 v -18.333 h 2.29 v 18.333 z m 0,-25.208 v -18.334 l 2.29,10e-4 v 18.333 z m 0,-25.209 v -18.333 h 2.29 v 18.334 z m -12.64,-20.45 13.96,-27.392 13.54,27.607 z"
       id="path147" /><path
       d="m 1675.15,1580.77 v 18.34 h -2.3 v -18.34 z m 0,25.21 v 18.34 h -2.3 v -18.34 z m 0,25.21 v 18.33 h -2.3 v -18.33 z m 0,25.21 v 18.33 h -2.3 v -18.33 z m 0,25.21 v 18.33 h -2.3 v -18.33 z m 0,25.21 v 18.33 h -2.3 v -18.33 z m 0,25.2 v 0.73 l -1.15,-1.14 h 17.61 v 2.29 h -18.76 v -1.88 z m 23.33,-0.41 h 18.34 v 2.29 h -18.34 z m 25.21,0 h 18.33 v 2.29 h -18.33 z m 25.21,0 h 18.33 v 2.29 h -18.33 z m 25.21,0 h 18.33 v 2.29 h -18.33 z m 25.21,0 h 18.33 v 2.29 h -18.33 z m 25.2,0 h 18.34 v 2.29 h -18.34 z m 25.21,0 h 18.34 v 2.29 h -18.34 z m 25.21,0 h 18.33 v 2.29 h -18.33 z m 25.21,0 h 18.33 v 2.29 h -18.33 z m 25.21,0 h 18.33 v 2.29 h -18.33 z m 25.21,0 h 18.33 v 2.29 h -18.33 z m 25.2,0 h 18.34 v 2.29 h -18.34 z m 25.21,0 h 18.34 v 2.29 h -18.34 z m 25.21,0 h 18.33 v 2.29 h -18.33 z m 25.21,0 h 18.33 v 2.29 h -18.33 z m 25.21,0 h 18.33 v 2.29 h -18.33 z m 25.21,0 h 18.33 v 2.29 h -18.33 z m 25.2,0 h 18.34 v 2.29 h -18.34 z m 25.21,0 h 18.34 v 2.29 h -18.34 z m 25.21,0 h 18.33 v 2.29 h -18.33 z m 25.21,0 h 18.33 v 2.29 h -18.33 z m 25.21,0 h 18.33 v 2.29 h -18.33 z m 25.21,0 h 18.33 v 2.29 h -18.33 z m 25.2,0 h 18.34 v 2.29 h -18.34 z m 25.21,0 h 18.34 v 2.29 h -18.34 z m 25.21,0 h 18.33 v 2.29 h -18.33 z m 25.21,0 h 18.33 v 2.29 h -18.33 z m 25.21,0 h 18.33 v 2.29 h -18.33 z m 25.21,0 h 18.33 v 2.29 h -18.33 z m 25.2,0 h 18.34 v 2.29 h -18.34 z m 25.21,0 h 18.34 v 2.29 h -18.34 z m 25.21,0 h 18.33 v 2.29 h -18.33 z m 25.21,0 h 18.33 v 2.29 h -18.33 z m 25.21,0 h 18.33 v 2.29 h -18.33 z m 25.21,0 h 18.33 v 2.29 h -18.33 z m 25.2,0 h 18.34 v 2.29 h -18.34 z m 25.21,0 h 18.34 v 2.29 h -18.34 z m 25.21,0 h 18.33 v 2.29 h -18.33 z m 25.21,0 h 18.33 v 2.29 h -18.33 z m 25.21,0 h 18.33 v 2.29 h -18.33 z m 25.21,0 h 18.33 v 2.29 h -18.33 z m 25.2,0 h 18.34 v 2.29 h -18.34 z m 25.21,0 h 18.34 v 2.29 h -18.34 z m 25.21,0 h 18.33 v 2.29 h -18.33 z m 25.21,0 h 18.33 v 2.29 h -18.33 z m 25.21,0 h 18.33 v 2.29 h -18.33 z m 25.21,0 h 18.33 v 2.29 h -18.33 z m 25.2,0 h 18.34 v 2.29 h -18.34 z m 25.21,0 h 18.34 v 2.29 h -18.34 z m 25.21,0 h 18.33 v 2.29 h -18.33 z m 25.21,0 h 18.33 v 2.29 h -18.33 z m 25.21,0 h 18.33 v 2.29 h -18.33 z m 25.21,0 h 18.33 v 2.29 h -18.33 z m 25.2,0 h 18.34 v 2.29 h -18.34 z m 25.21,0 h 18.34 v 2.29 h -18.34 z m 25.21,0 h 18.33 v 2.29 h -18.33 z m 25.21,0 h 18.33 v 2.29 h -18.33 z m 25.21,0 h 18.33 v 2.29 h -18.33 z m 25.21,0 h 15.47 l -1.15,1.14 v -2.86 h 2.29 v 4.01 h -16.61 z m 14.32,-8.6 v -18.33 h 2.29 v 18.33 z m 0,-25.2 v -18.34 h 2.29 v 18.34 z m 0,-25.21 v -18.34 h 2.29 v 18.34 z m 0,-25.21 v -18.33 h 2.29 v 18.33 z m 0,-25.21 v -18.33 h 2.29 v 18.33 z m 0,-25.21 v -18.33 h 2.29 v 18.33 z m 0,-25.21 v -18.33 h 2.29 v 18.33 z m 0,-25.2 v -18.34 h 2.29 v 18.34 z m 0,-25.21 v -18.34 h 2.29 v 18.34 z m 0,-25.21 v -18.33 h 2.29 v 18.33 z m 0,-25.21 v -18.33 h 2.29 v 18.33 z m 0,-25.21 v -18.33 h 2.29 v 18.33 z m 0,-25.21 v -18.33 h 2.29 v 18.33 z m 0,-25.2 v -18.34 h 2.29 v 18.34 z m 0,-25.21 v -18.34 h 2.29 v 18.34 z m 0,-25.21 v -18.33 h 2.29 v 18.33 z m 0,-25.21 v -18.33 h 2.29 v 18.33 z m 0,-25.21 v -18.33 h 2.29 v 18.33 z m 0,-25.21 v -18.33 h 2.29 v 18.33 z m 0,-25.2 v -18.34 h 2.29 v 18.34 z m 0,-25.21 v -18.34 h 2.29 v 18.34 z m 0,-25.21 v -18.33 h 2.29 v 18.33 z m 0,-25.21 v -18.33 h 2.29 v 18.33 z m 0,-25.21 v -18.33 h 2.29 v 18.33 z m 0,-25.21 v -18.33 h 2.29 v 18.33 z m 0,-25.2 v -18.34 h 2.29 v 18.34 z m 0,-25.21 v -18.34 h 2.29 v 18.34 z m 0,-25.21 v -18.33 h 2.29 v 18.33 z m 0,-25.21 v -18.332 h 2.29 v 18.332 z m 0,-25.207 v -18.334 h 2.29 v 18.334 z m 0,-25.209 v -18.333 h 2.29 v 18.333 z m 0,-25.208 v -18.333 h 2.3 l -0.01,18.333 z m 0,-25.208 v -18.334 h 2.3 v 18.334 z m 0,-25.209 v -18.333 h 2.3 v 18.333 z m 0,-25.208 v -18.333 h 2.3 v 18.333 z m 0,-25.208 v -18.334 h 2.3 v 18.334 z m 0,-25.209 v -6.597 h 2.3 v 6.597 z m -12.6,-2.021 13.76,-27.493 13.74,27.508 z"
       id="path149" /><path
       d="m 2003.15,1578.77 v 18.34 h -2.3 v -18.34 z m 0,25.21 v 18.33 h -2.3 v -18.33 z m 0,25.21 v 18.33 h -2.3 v -18.33 z m 0,25.21 v 18.33 h -2.3 v -18.33 z m 0,25.21 v 18.33 h -2.3 v -18.33 z m 0,25.2 v 1.34 L 2002,1705 h 17 v 2.29 h -18.15 v -2.48 z m 22.73,0.19 h 18.33 v 2.29 h -18.33 z m 25.2,0 h 18.34 v 2.29 h -18.34 z m 25.21,0 h 18.34 v 2.29 h -18.34 z m 25.21,0 h 18.33 v 2.29 h -18.33 z m 25.21,0 h 18.33 v 2.29 h -18.33 z m 25.21,0 h 18.33 v 2.29 h -18.33 z m 25.21,0 h 18.33 v 2.29 h -18.33 z m 25.2,0 h 18.34 v 2.29 h -18.34 z m 25.21,0 h 18.34 v 2.29 h -18.34 z m 25.21,0 h 18.33 v 2.29 h -18.33 z m 25.21,0 h 18.33 v 2.29 h -18.33 z m 25.21,0 h 18.33 v 2.29 h -18.33 z m 25.21,0 h 18.33 v 2.29 h -18.33 z m 25.2,0 h 18.34 v 2.29 h -18.34 z m 25.21,0 h 18.34 v 2.29 h -18.34 z m 25.21,0 h 18.33 v 2.29 H 2404 Z m 25.21,0 h 18.33 v 2.29 h -18.33 z m 25.21,0 h 18.33 v 2.29 h -18.33 z m 25.21,0 h 18.33 v 2.29 h -18.33 z m 25.2,0 h 18.34 v 2.29 h -18.34 z m 25.21,0 h 18.34 v 2.29 h -18.34 z m 25.21,0 h 18.33 v 2.29 h -18.33 z m 25.21,0 h 18.33 v 2.29 h -18.33 z m 25.21,0 H 2624 v 2.29 h -18.33 z m 25.21,0 h 18.33 v 2.29 h -18.33 z m 25.2,0 h 18.34 v 2.29 h -18.34 z m 25.21,0 h 18.34 v 2.29 h -18.34 z m 25.21,0 h 18.33 v 2.29 h -18.33 z m 25.21,0 h 18.33 v 2.29 h -18.33 z m 25.21,0 h 18.33 v 2.29 h -18.33 z m 25.21,0 h 18.33 v 2.29 h -18.33 z m 25.2,0 h 18.34 v 2.29 h -18.34 z m 25.21,0 h 18.34 v 2.29 h -18.34 z m 25.21,0 h 18.33 v 2.29 h -18.33 z m 25.21,0 h 18.33 v 2.29 h -18.33 z m 25.21,0 h 18.33 v 2.29 h -18.33 z m 25.21,0 h 18.33 v 2.29 h -18.33 z m 25.2,0 h 18.34 v 2.29 h -18.34 z m 25.21,0 h 18.34 v 2.29 h -18.34 z m 25.21,0 h 18.33 v 2.29 H 3009 Z m 25.21,0 h 12.47 l -1.14,1.15 v -5.86 h 2.29 v 7 h -13.62 z m 11.33,-11.59 v -18.33 h 2.29 v 18.33 z m 0,-25.2 v -18.34 h 2.29 v 18.34 z m 0,-25.21 v -18.34 h 2.29 V 1643 Z m 0,-25.21 v -18.33 h 2.29 v 18.33 z m 0,-25.21 v -18.33 h 2.29 v 18.33 z m 0,-25.21 v -18.33 h 2.29 v 18.33 z m 0,-25.21 v -18.33 h 2.29 v 18.33 z m 0,-25.2 v -18.34 h 2.29 v 18.34 z m 0,-25.21 v -18.34 h 2.29 v 18.34 z m 0,-25.21 v -18.33 h 2.29 v 18.33 z m 0,-25.21 V 1423 h 2.29 v 18.33 z m 0,-25.21 v -18.33 h 2.29 v 18.33 z m 0,-25.21 v -18.33 h 2.29 v 18.33 z m 0,-25.2 v -18.34 h 2.29 v 18.34 z m 0,-25.21 v -18.34 h 2.29 v 18.34 z m 0,-25.21 v -18.33 h 2.29 v 18.33 z m 0,-25.21 v -18.33 h 2.29 v 18.33 z m 0,-25.21 v -18.33 h 2.29 v 18.33 z m 0,-25.21 v -18.33 h 2.29 v 18.33 z m 0,-25.2 v -18.34 h 2.29 v 18.34 z m 0,-25.21 v -18.34 h 2.29 v 18.34 z m 0,-25.21 v -18.33 h 2.29 v 18.33 z m 0,-25.21 v -18.33 h 2.29 v 18.33 z m 0,-25.21 v -18.33 h 2.29 v 18.33 z m 0,-25.21 v -18.33 h 2.29 v 18.33 z m 0,-25.2 v -18.34 h 2.29 v 18.34 z m 0,-25.21 v -18.34 h 2.29 V 1038 Z m 0,-25.21 v -18.335 h 2.29 v 18.335 z m 0,-25.21 v -18.333 h 2.29 v 18.333 z m 0,-25.208 v -18.334 h 2.3 v 18.334 z m 0,-25.209 V 918.83 h 2.3 v 18.333 z m 0,-25.208 v -18.333 h 2.3 v 18.333 z m 0,-25.208 v -18.334 h 2.3 v 18.334 z m 0,-25.209 v -18.333 h 2.3 v 18.333 z m 0,-25.208 v -18.333 h 2.3 v 18.333 z m 0,-25.208 v -2.205 h 2.3 v 2.205 z m -12.61,2.357 13.8,-27.479 13.7,27.521 z"
       id="path151" /><path
       d="m 2316.15,1578.46 v 18.33 h -2.3 v -18.33 z m 0,25.21 V 1622 h -2.3 v -18.33 z m 0,25.21 v 18.33 h -2.3 v -18.33 z m 0,25.2 v 18.34 h -2.3 v -18.34 z m -0.18,23.1 h 18.33 v 2.29 h -18.33 z m 25.21,0 h 18.33 v 2.29 h -18.33 z m 25.2,0 h 18.34 v 2.29 h -18.34 z m 25.21,0 h 18.34 v 2.29 h -18.34 z m 25.21,0 h 18.33 v 2.29 h -18.33 z m 25.21,0 h 18.33 v 2.29 h -18.33 z m 25.21,0 h 18.33 v 2.29 h -18.33 z m 25.21,0 h 18.33 v 2.29 h -18.33 z m 25.2,0 h 18.34 v 2.29 h -18.34 z m 25.21,0 h 18.34 v 2.29 h -18.34 z m 25.21,0 h 18.33 v 2.29 h -18.33 z m 25.21,0 h 18.33 v 2.29 h -18.33 z m 25.21,0 h 18.33 v 2.29 h -18.33 z m 25.21,0 h 18.33 v 2.29 h -18.33 z m 25.2,0 h 18.34 v 2.29 h -18.34 z m 25.21,0 h 18.34 v 2.29 h -18.34 z m 25.21,0 h 18.33 v 2.29 h -18.33 z m 25.21,0 h 18.33 v 2.29 h -18.33 z m 25.21,0 h 18.33 v 2.29 h -18.33 z m 25.21,0 h 18.33 v 2.29 h -18.33 z m 25.2,0 h 18.34 v 2.29 h -18.34 z m 23.78,0.86 v -18.34 h 2.29 v 18.34 z m 0,-25.21 v -18.34 h 2.29 v 18.34 z m 0,-25.21 v -18.33 h 2.29 v 18.33 z m 0,-25.21 v -18.33 h 2.29 v 18.33 z m 0,-25.21 v -18.33 h 2.29 v 18.33 z m 0,-25.21 v -18.33 h 2.29 v 18.33 z m 0,-25.2 v -18.34 h 2.29 v 18.34 z m 0,-25.21 v -18.34 h 2.29 v 18.34 z m 0,-25.21 v -18.33 h 2.29 v 18.33 z m 0,-25.21 v -18.33 h 2.29 v 18.33 z m 0,-25.21 v -18.33 h 2.29 v 18.33 z m 0,-25.21 v -18.33 h 2.29 v 18.33 z m 0,-25.2 v -18.34 h 2.29 v 18.34 z m 0,-25.21 v -18.34 h 2.29 v 18.34 z m 0,-25.21 v -18.33 h 2.29 v 18.33 z m 0,-25.21 v -18.33 h 2.29 v 18.33 z m 0,-25.21 v -18.33 h 2.29 v 18.33 z m 0,-25.21 v -18.33 h 2.29 v 18.33 z m 0,-25.2 v -18.34 h 2.29 v 18.34 z m 0,-25.21 v -18.34 h 2.29 v 18.34 z m 0,-25.21 v -18.33 h 2.29 v 18.33 z m 0,-25.21 v -18.33 h 2.29 v 18.33 z m 0,-25.21 v -18.33 h 2.29 v 18.33 z m 0,-25.21 v -18.33 h 2.29 v 18.33 z m 0,-25.2 v -18.34 h 2.29 v 18.34 z m 0,-25.21 v -18.34 h 2.29 v 18.34 z m 0,-25.21 v -18.33 h 2.29 v 18.33 z m 0,-25.209 v -18.333 h 2.29 v 18.333 z m 0,-25.208 v -18.334 h 2.29 v 18.334 z m 0,-25.209 v -18.333 h 2.29 v 18.333 z m 0,-25.208 v -18.333 h 2.29 v 18.333 z m 0,-25.208 v -18.334 h 2.29 v 18.334 z m 0,-25.209 v -18.333 h 2.29 v 18.333 z m 0,-25.208 v -18.333 h 2.29 v 18.333 z m 0,-25.208 v -9.036 h 2.29 v 9.036 z m -12.61,-4.453 13.75,-27.5 13.75,27.5 z"
       id="path153" /><path
       d="m 2001,1526.8 -109.23,-57.16 1.07,-2.03 109.22,57.16 z M 1889.99,1482.93 1872,1458 l 30.74,0.57 z"
       id="path155" /><path
       d="M 0.492329,-1.03467 126.2,58.7807 125.215,60.8501 -0.492329,1.03467 Z M 127.477,45.43 l 18.924,24.232 -30.74,0.6001 z"
       transform="matrix(1,0,0,-1,1674,1527.66)"
       id="path157" /><path
       d="m 1809,1433 c 0,-19.33 16.57,-35 37,-35 20.43,0 37,15.67 37,35 0,19.33 -16.57,35 -37,35 -20.43,0 -37,-15.67 -37,-35 z"
       stroke="#000000"
       stroke-width="2.29167"
       stroke-linejoin="round"
       stroke-miterlimit="10"
       fill="none"
       fill-rule="evenodd"
       id="path159" /><path
       d="m 1844.5,1416.48 h 2.47 l 2.48,13.62 13.9,-1.91 0.77,2.39 -12.24,6.57 6.12,12.64 -1.99,1.46 -10.13,-9.64 -10.01,9.72 -2.07,-1.46 6.08,-12.52 -12.36,-6.6 0.77,-2.35 13.78,1.86 z"
       fill-rule="evenodd"
       id="path161" /><text
       fill="#000000"
       fill-opacity="0"
       font-family="Arial, Arial_MSFontService, sans-serif"
       font-size="34.8535px"
       x="1827.52"
       y="1446.98"
       id="text163">⋆</text><path
       d="m 1845.48,1399.24 -0.38,-36.31 2.29,-0.03 0.38,36.32 z m -12.94,-31.6 13.46,-27.64 14.04,27.35 z"
       id="path165" /><path
       d="m 2450.05,569.708 -0.05,-18.333 2.29,-0.006 0.05,18.333 z m -0.06,-25.208 -0.05,-18.334 2.29,-0.005 0.05,18.333 z m -0.06,-25.209 -0.02,-7.372 2.29,-0.005 0.02,7.372 z M 2437.32,516.533 2451,489 l 13.81,27.467 z"
       id="path167" /><path
       d="m 2269.3,571.119 -0.1,-18.333 2.3,-0.012 0.09,18.333 z m -0.13,-25.208 -0.1,-18.333 2.29,-0.012 0.1,18.333 z m -0.14,-25.207 -0.05,-9.781 2.29,-0.013 0.05,9.781 z m -12.63,-5.13 13.6,-27.574 13.9,27.425 z"
       id="path169" /><path
       d="M 1.14583,-4.99905e-6 1.14591,18.3333 H -1.14575 L -1.14583,4.99905e-6 Z M 1.14594,25.2083 l 8e-5,18.3334 h -2.29166 l -8e-5,-18.3334 z m 1.1e-4,25.2084 4e-5,9.3868 h -2.29166 l -4e-5,-9.3868 z M 13.7502,55.2201 3.60892e-4,82.7201 -13.7498,55.2202 Z"
       transform="matrix(1,0,0,-1,2077,570.72)"
       id="path171" /><path
       d="M 1.14583,-5.04675e-6 1.14591,18.3333 H -1.14575 L -1.14583,5.04675e-6 Z M 1.14594,25.2083 l 9e-5,18.3334 h -2.29167 l -8e-5,-18.3334 z m 1.2e-4,25.2084 3e-5,8.6051 h -2.29166 l -4e-5,-8.6051 z M 13.7502,54.4384 3.60892e-4,81.9385 -13.7498,54.4385 Z"
       transform="matrix(1,0,0,-1,1872,569.939)"
       id="path173" /><text
       font-family="'Times New Roman', 'Times New Roman_MSFontService', sans-serif"
       font-weight="400"
       font-size="64px"
       transform="translate(1829.24,456)"
       id="text175">NP</text><text
       font-family="'Times New Roman', 'Times New Roman_MSFontService', sans-serif"
       font-weight="400"
       font-size="64px"
       transform="translate(2062.55,456)"
       id="text177">S</text><text
       font-family="'Times New Roman', 'Times New Roman_MSFontService', sans-serif"
       font-weight="400"
       font-size="64px"
       transform="translate(2202.14,455)"
       id="text179">S</text><text
       font-family="'Times New Roman', 'Times New Roman_MSFontService', sans-serif"
       font-weight="400"
       font-size="64px"
       transform="translate(2237.66,455)"
       id="text181">\</text><text
       font-family="'Times New Roman', 'Times New Roman_MSFontService', sans-serif"
       font-weight="400"
       font-size="64px"
       transform="translate(2255.42,455)"
       id="text183">NP</text><text
       font-family="'Times New Roman', 'Times New Roman_MSFontService', sans-serif"
       font-weight="400"
       font-size="64px"
       transform="translate(2382.65,456)"
       id="text185">S</text><text
       font-family="'Times New Roman', 'Times New Roman_MSFontService', sans-serif"
       font-weight="400"
       font-size="64px"
       transform="translate(2418.17,456)"
       id="text187">\</text><text
       font-family="'Times New Roman', 'Times New Roman_MSFontService', sans-serif"
       font-weight="400"
       font-size="64px"
       transform="translate(2435.93,456)"
       id="text189">NP</text><path
       d="m 1791.5,788.5 54.25,-217 h 659.5 l 54.25,217 z"
       stroke="#000000"
       stroke-width="4.58333"
       stroke-linejoin="round"
       stroke-miterlimit="10"
       fill="#afabab"
       fill-rule="evenodd"
       id="path191" /><text
       font-family="Calibri, Calibri_MSFontService, sans-serif"
       font-weight="400"
       font-size="73px"
       transform="translate(1931.79,667)"
       id="text193">Phrase Category</text><text
       font-family="Calibri, Calibri_MSFontService, sans-serif"
       font-weight="400"
       font-size="73px"
       transform="translate(2042.09,755)"
       id="text195">Classifier</text><text
       font-family="'Times New Roman', 'Times New Roman_MSFontService', sans-serif"
       font-weight="400"
       font-size="64px"
       transform="translate(2602.37,455)"
       id="text197">S</text><text
       font-family="'Times New Roman', 'Times New Roman_MSFontService', sans-serif"
       font-weight="400"
       font-size="64px"
       transform="translate(2637.89,455)"
       id="text199">\</text><text
       font-family="'Times New Roman', 'Times New Roman_MSFontService', sans-serif"
       font-weight="400"
       font-size="64px"
       transform="translate(2655.65,455)"
       id="text201">NP</text><text
       font-family="'Times New Roman', 'Times New Roman_MSFontService', sans-serif"
       font-weight="400"
       font-size="64px"
       transform="translate(2743.34,377)"
       id="text203">(S</text><text
       font-family="'Times New Roman', 'Times New Roman_MSFontService', sans-serif"
       font-weight="400"
       font-size="64px"
       transform="translate(2800.06,377)"
       id="text205">\</text><text
       font-family="'Times New Roman', 'Times New Roman_MSFontService', sans-serif"
       font-weight="400"
       font-size="64px"
       transform="translate(2817.82,377)"
       id="text207">NP)/</text><text
       font-family="'Times New Roman', 'Times New Roman_MSFontService', sans-serif"
       font-weight="400"
       font-size="64px"
       transform="translate(2743.34,454)"
       id="text209">(S</text><text
       font-family="'Times New Roman', 'Times New Roman_MSFontService', sans-serif"
       font-weight="400"
       font-size="64px"
       transform="translate(2800.06,454)"
       id="text211">\</text><text
       font-family="'Times New Roman', 'Times New Roman_MSFontService', sans-serif"
       font-weight="400"
       font-size="64px"
       transform="translate(2817.82,454)"
       id="text213">NP)</text><text
       font-family="'Times New Roman', 'Times New Roman_MSFontService', sans-serif"
       font-weight="400"
       font-size="64px"
       transform="translate(2950.92,378)"
       id="text215">(S</text><text
       font-family="'Times New Roman', 'Times New Roman_MSFontService', sans-serif"
       font-weight="400"
       font-size="64px"
       transform="translate(3007.64,378)"
       id="text217">\</text><text
       font-family="'Times New Roman', 'Times New Roman_MSFontService', sans-serif"
       font-weight="400"
       font-size="64px"
       transform="translate(3025.4,378)"
       id="text219">NP)/</text><text
       font-family="'Times New Roman', 'Times New Roman_MSFontService', sans-serif"
       font-weight="400"
       font-size="64px"
       transform="translate(2950.92,455)"
       id="text221">(S</text><text
       font-family="'Times New Roman', 'Times New Roman_MSFontService', sans-serif"
       font-weight="400"
       font-size="64px"
       transform="translate(3007.64,455)"
       id="text223">\</text><text
       font-family="'Times New Roman', 'Times New Roman_MSFontService', sans-serif"
       font-weight="400"
       font-size="64px"
       transform="translate(3025.4,455)"
       id="text225">NP)</text><text
       font-family="'Times New Roman', 'Times New Roman_MSFontService', sans-serif"
       font-weight="400"
       font-size="64px"
       transform="translate(3217.71,456)"
       id="text227">NP/N</text><text
       font-family="'Times New Roman', 'Times New Roman_MSFontService', sans-serif"
       font-weight="400"
       font-size="64px"
       transform="translate(3156.76,456)"
       id="text229">N</text><path
       d="M 1.14583,-4.90971e-6 1.14591,18.3333 H -1.14575 L -1.14583,4.90971e-6 Z M 1.14594,25.2083 l 8e-5,18.3334 h -2.29167 l -8e-5,-18.3334 z m 1.1e-4,25.2084 5e-5,10.8921 h -2.29167 l -5e-5,-10.8921 z M 13.7502,56.7254 3.60892e-4,84.2254 -13.7498,56.7255 Z"
       transform="matrix(1,0,0,-1,3050,572.226)"
       id="path231" /><path
       d="M 1.14583,-4.97578e-6 1.14591,18.3333 H -1.14575 L -1.14583,4.97578e-6 Z M 1.14594,25.2083 l 8e-5,18.3334 h -2.29166 l -8e-5,-18.3334 z m 1.1e-4,25.2084 4e-5,9.7736 -2.29166,10e-5 -4e-5,-9.7737 z M 13.7502,55.607 3.60892e-4,83.107 -13.7498,55.6071 Z"
       transform="matrix(1,0,0,-1,2671,571.107)"
       id="path233" /><path
       d="M 1.14583,-4.88553e-6 1.14591,18.3333 H -1.14576 L -1.14583,4.88553e-6 Z M 1.14594,25.2083 l 8e-5,18.3334 h -2.29167 l -8e-5,-18.3334 z m 1.1e-4,25.2084 5e-5,11.3089 h -2.29167 l -5e-5,-11.3089 z M 13.7502,57.1422 3.60892e-4,84.6423 -13.7498,57.1423 Z"
       transform="matrix(1,0,0,-1,2842,572.642)"
       id="path235" /><path
       d="M 1.14583,-4.95678e-6 1.14591,18.3333 H -1.14575 L -1.14583,4.95678e-6 Z M 1.14594,25.2083 l 8e-5,18.3334 h -2.29166 l -8e-5,-18.3334 z m 1.1e-4,25.2084 5e-5,10.0923 h -2.29167 l -5e-5,-10.0923 z M 13.7502,55.9256 3.60892e-4,83.4257 -13.7498,55.9257 Z"
       transform="matrix(1,0,0,-1,3177,572.426)"
       id="path237" /><path
       d="M 1.14583,-4.9208e-6 1.14591,18.3333 H -1.14575 L -1.14583,4.9208e-6 Z M 1.14594,25.2083 l 8e-5,18.3334 h -2.29167 l -8e-5,-18.3334 z m 1.1e-4,25.2084 5e-5,10.7022 h -2.29167 l -5e-5,-10.7022 z M 13.7502,56.5355 3.60892e-4,84.0356 -13.7498,56.5357 Z"
       transform="matrix(1,0,0,-1,3294,572.036)"
       id="path239" /><path
       d="m 2589.5,788.5 54.25,-217 h 660.5 l 54.25,217 z"
       stroke="#000000"
       stroke-width="4.58333"
       stroke-miterlimit="8"
       fill="#afabab"
       fill-rule="evenodd"
       id="path241" /><text
       font-family="Calibri, Calibri_MSFontService, sans-serif"
       font-weight="400"
       font-size="73px"
       transform="translate(2747.39,666)"
       id="text243">Word Category </text><text
       font-family="Calibri, Calibri_MSFontService, sans-serif"
       font-weight="400"
       font-size="73px"
       transform="translate(2840.77,754)"
       id="text245">Classifier</text><path
       d="m 996.5,787.5 54.25,-217 h 657.5 l 54.25,217 z"
       stroke="#000000"
       stroke-width="4.58333"
       stroke-miterlimit="8"
       fill="#afabab"
       fill-rule="evenodd"
       id="path247" /><text
       font-family="Calibri, Calibri_MSFontService, sans-serif"
       font-weight="400"
       font-size="73px"
       transform="translate(1157.95,666)"
       id="text249">Span Existence</text><text
       font-family="Calibri, Calibri_MSFontService, sans-serif"
       font-weight="400"
       font-size="73px"
       transform="translate(1178.3,754)"
       id="text251">Discriminator</text><path
       d="M 1.14583,-4.94853e-6 1.14591,18.3333 H -1.14575 L -1.14583,4.94853e-6 Z M 1.14594,25.2083 l 8e-5,18.3334 h -2.29167 l -7e-5,-18.3334 z m 1.1e-4,25.2084 5e-5,10.2313 h -2.29167 l -5e-5,-10.2313 z M 13.7502,56.0646 3.60892e-4,83.5646 -13.7498,56.0647 Z"
       transform="matrix(1,0,0,-1,1076,571.565)"
       id="path253" /><path
       d="M 1.14583,-5.03152e-6 1.14591,18.3333 H -1.14575 L -1.14583,5.03152e-6 Z M 1.14594,25.2083 l 8e-5,18.3334 h -2.29166 l -8e-5,-18.3334 z m 1.1e-4,25.2084 4e-5,8.853 h -2.29166 l -4e-5,-8.853 z M 13.7502,54.6863 3.60892e-4,82.1864 -13.7498,54.6864 Z"
       transform="matrix(1,0,0,-1,1226,570.187)"
       id="path255" /><path
       d="m 1378.33,570.244 -0.1,-18.333 2.29,-0.013 0.1,18.333 z m -0.14,-25.208 -0.11,-18.333 2.29,-0.013 0.11,18.333 z m -0.15,-25.208 -0.05,-8.905 2.29,-0.013 0.05,8.905 z M 1365.41,515.58 1379,488 l 13.91,27.42 z"
       id="path257" /><path
       d="M 1.14583,-5.10632e-6 1.14592,18.3333 H -1.14575 L -1.14583,5.10632e-6 Z M 1.14595,25.2083 l 8e-5,18.3334 h -2.29167 l -8e-5,-18.3334 z m 1.1e-4,25.2084 3e-5,7.6491 h -2.29166 l -4e-5,-7.6491 z M 13.7502,53.4824 3.60892e-4,80.9824 -13.7498,53.4825 Z"
       transform="matrix(1,0,0,-1,1681,569.983)"
       id="path259" /><path
       d="M 1.14583,-5.04066e-6 1.14591,18.3333 H -1.14575 L -1.14583,5.04066e-6 Z M 1.14594,25.2083 l 8e-5,18.3334 h -2.29166 l -8e-5,-18.3334 z m 1.2e-4,25.2084 3e-5,8.704 h -2.29166 l -4e-5,-8.704 z M 13.7502,54.5373 3.60892e-4,82.0373 -13.7498,54.5374 Z"
       transform="matrix(1,0,0,-1,1529,571.037)"
       id="path261" /><text
       font-family="'Times New Roman', 'Times New Roman_MSFontService', sans-serif"
       font-weight="400"
       font-size="64px"
       transform="translate(1061.75,456)"
       id="text263">1</text><text
       font-family="'Times New Roman', 'Times New Roman_MSFontService', sans-serif"
       font-weight="400"
       font-size="64px"
       transform="translate(1212.39,456)"
       id="text265">0</text><text
       font-family="'Times New Roman', 'Times New Roman_MSFontService', sans-serif"
       font-weight="400"
       font-size="64px"
       transform="translate(1364.87,456)"
       id="text267">1</text><text
       font-family="'Times New Roman', 'Times New Roman_MSFontService', sans-serif"
       font-weight="400"
       font-size="64px"
       transform="translate(1666.7,457)"
       id="text269">1</text><text
       font-family="'Times New Roman', 'Times New Roman_MSFontService', sans-serif"
       font-weight="400"
       font-size="64px"
       transform="translate(1514.66,457)"
       id="text271">1</text><path
       d="m 1174.5,1949.5 34.75,-139 h 1642.5 l 34.75,139 z"
       stroke="#000000"
       stroke-width="4.58333"
       stroke-miterlimit="8"
       fill="#afabab"
       fill-rule="evenodd"
       id="path273" /><text
       font-family="Calibri, Calibri_MSFontService, sans-serif"
       font-weight="400"
       font-size="73px"
       transform="translate(1426.39,1897)"
       id="text275">Deep Contextualized Encoder (</text><text
       font-family="Calibri, Calibri_MSFontService, sans-serif"
       font-weight="400"
       font-size="73px"
       transform="translate(2345.35,1897)"
       id="text277">RoBERTa</text><text
       font-family="Calibri, Calibri_MSFontService, sans-serif"
       font-weight="400"
       font-size="73px"
       transform="translate(2611.18,1897)"
       id="text279">)</text><path
       d="m 1941,2010 70.5,-40 70.5,40 h -35.25 v 40 h -70.5 v -40 z"
       fill-rule="evenodd"
       id="path281" /><path
       d="M 1.14583,-1.80752e-6 1.14616,205.862 H -1.14551 L -1.14583,1.80752e-6 Z M 13.7503,201.279 3.60892e-4,228.779 -13.7497,201.279 Z"
       transform="matrix(1,0,0,-1,2635,1808.78)"
       id="path283" /><path
       d="M 1.14583,-1.80076e-6 1.14616,206.721 H -1.14551 L -1.14583,1.80076e-6 Z M 13.7503,202.138 3.60892e-4,229.638 -13.7497,202.138 Z"
       transform="matrix(1,0,0,-1,2283,1809.64)"
       id="path285" /><path
       d="M 1.14583,-1.80076e-6 1.14616,206.721 H -1.14551 L -1.14583,1.80076e-6 Z M 13.7503,202.138 3.60892e-4,229.638 -13.7497,202.138 Z"
       transform="matrix(1,0,0,-1,1970,1808.64)"
       id="path287" /><path
       d="M 1.14583,-1.80076e-6 1.14616,206.721 H -1.14551 L -1.14583,1.80076e-6 Z M 13.7503,202.138 3.60892e-4,229.638 -13.7497,202.138 Z"
       transform="matrix(1,0,0,-1,1643,1808.64)"
       id="path289" /><path
       d="M 1.14581,-0.00697812 2.39713,205.46 0.105504,205.474 -1.14581,0.00697812 Z M 14.9731,200.8 1.39088,228.383 -12.5263,200.967 Z"
       transform="matrix(1,0,0,-1,1315,1808.38)"
       id="path291" /><text
       font-family="'Times New Roman', 'Times New Roman_MSFontService', sans-serif"
       font-style="italic"
       font-weight="400"
       font-size="92px"
       transform="translate(1576.23,2137)"
       id="text293">“My sister loves to eat”</text><g
       clip-path="url(#clip1)"
       id="g307"><g
         clip-path="url(#clip2)"
         id="g305"><g
           clip-path="url(#clip3)"
           id="g303"><path
             d="m 42.2145,-31.3689 c 0.5006,-1.168 0.8343,-1.752 6.1737,-1.752 v -3.9211 c -2.0857,0.1669 -4.5051,0.2503 -6.5909,0.2503 -2.0857,0 -5.8399,-0.1668 -7.5919,-0.2503 v 3.9211 c 1.5851,0 4.0046,0.2503 4.0046,0.9177 0,0.0834 -0.0834,0.2503 -0.4171,1.0012 l -9.6777,20.8569 -10.5954,-22.7758 h 4.5052 v -3.9211 c -2.7532,0.1669 -10.2617,0.2503 -10.3451,0.2503 -2.33594,0 -6.09023,-0.1668 -9.51077,-0.2503 v 3.9211 H 7.50851 L 22.1084,-1.75198 c 1.0011,2.085692 2.0857,2.085692 3.1702,2.085692 1.4183,0 2.2526,-0.2502841 3.0869,-2.002272 z"
             transform="matrix(1,0,0,1.01103,2036.24,1647.35)"
             id="path295" /><path
             d="m 29.4917,-10.6287 h -1.9856 c -0.1751,1.28474 -0.7591,4.73035 -1.5183,5.31435 -0.4672,0.35039 -4.9639,0.35039 -5.7816,0.35039 H 9.46069 c 6.13201,-5.43114 8.17591,-7.06634 11.67991,-9.81104 4.3216,-3.4456 8.3511,-7.0664 8.3511,-12.6143 0,-7.0664 -6.1903,-11.388 -13.6655,-11.388 -7.24144,0 -12.14703,5.0808 -12.14703,10.4535 0,2.9784 2.51118,3.2704 3.09517,3.2704 1.40159,0 3.09518,-0.9928 3.09518,-3.0951 0,-1.0512 -0.40883,-3.0952 -3.44558,-3.0952 1.81039,-4.1464 5.78156,-5.4312 8.52636,-5.4312 5.8399,0 8.8767,4.5551 8.8767,9.2856 0,5.0807 -3.6208,9.1103 -5.4895,11.2126 L 4.26317,-2.27758 C 3.67917,-1.75198 3.67917,-1.63519 3.67917,0 H 27.7398 Z"
             transform="matrix(1,0,0,1.01103,2086.68,1660)"
             id="path297" /><path
             d="m 12.7895,-21.7831 c 0,-2.0439 -1.6352,-3.3871 -3.32881,-3.3871 -2.04395,0 -3.38714,1.6352 -3.38714,3.3288 0,2.044 1.63519,3.3871 3.32878,3.3871 2.04397,0 3.38717,-1.6351 3.38717,-3.3288 z m 0,18.45433 c 0,-2.04399 -1.6352,-3.38718 -3.32881,-3.38718 -2.04395,0 -3.38714,1.63519 -3.38714,3.32878 C 6.07355,-1.34319 7.70874,0 9.40233,0 11.4463,0 12.7895,-1.63519 12.7895,-3.32877 Z"
             transform="matrix(1,0,0,1.01103,2119.81,1660)"
             id="path299" /><path
             d="m 15.9431,-19.5055 c 4.5551,0 7.8255,3.1536 7.8255,9.4023 0,7.24162 -4.2048,9.402406 -7.5919,9.402406 -2.336,0 -7.4752,-0.642396 -9.92795,-4.087966 2.74475,-0.1168 3.38713,-2.04398 3.38713,-3.27037 0,-1.86875 -1.40155,-3.21197 -3.21194,-3.21197 -1.63518,0 -3.27036,0.9928 -3.27036,3.38717 0,5.48955 6.07356,9.05192 13.13982,9.05192 8.1176,0 13.724,-5.43116 13.724,-11.27119 0,-4.5551 -3.7376,-9.1103 -10.1616,-10.4534 6.132,-2.2192 8.3512,-6.5992 8.3512,-10.1615 0,-4.6136 -5.3144,-8.0592 -11.7967,-8.0592 -6.48242,0 -11.44634,3.1536 -11.44634,7.8256 0,1.9855 1.28479,3.0951 3.03677,3.0951 1.81042,0 2.97837,-1.3431 2.97837,-2.9783 0,-1.6936 -1.16795,-2.92 -2.97837,-3.0368 2.04397,-2.5696 6.07357,-3.212 8.23437,-3.212 2.6279,0 6.3072,1.2848 6.3072,6.3656 0,2.4528 -0.8177,5.1391 -2.3361,6.9495 -1.9272,2.2192 -3.5623,2.336 -6.4824,2.5112 -1.4599,0.1168 -1.5767,0.1168 -1.8687,0.1752 -0.1168,0 -0.584,0.1168 -0.584,0.7592 0,0.8175 0.5256,0.8175 1.5184,0.8175 z"
             transform="matrix(1,0,0,1.01103,2138.63,1660)"
             id="path301" /></g></g></g><g
       clip-path="url(#clip4)"
       id="g321"><g
         clip-path="url(#clip5)"
         id="g319"><g
           clip-path="url(#clip6)"
           id="g317"><path
             d="m 42.2144,-31.3688 c 0.5005,-1.168 0.8342,-1.752 6.1736,-1.752 v -3.9211 c -2.0856,0.1669 -4.5051,0.2503 -6.5908,0.2503 -2.0857,0 -5.8399,-0.1669 -7.5919,-0.2503 v 3.9211 c 1.5851,0 4.0046,0.2503 4.0046,0.9177 0,0.0834 -0.0834,0.2503 -0.4171,1.0011 l -9.6777,20.8569 -10.5953,-22.7757 h 4.5051 v -3.9211 c -2.7531,0.1669 -10.2616,0.2503 -10.345,0.2503 -2.33597,0 -6.09025,-0.1669 -9.51078,-0.2503 v 3.9211 H 7.50849 L 22.1083,-1.75198 c 1.0011,2.085691 2.0858,2.085691 3.1703,2.085691 1.4182,0 2.2525,-0.2502834 3.0868,-2.002261 z"
             transform="matrix(1,0,0,1.01103,2347.24,1647.35)"
             id="path309" /><path
             d="m 15.943,-19.5054 c 4.5552,0 7.8256,3.1536 7.8256,9.4023 0,7.24153 -4.2048,9.402308 -7.5919,9.402308 -2.3361,0 -7.47522,-0.642398 -9.92797,-4.087958 2.74475,-0.11679 3.38712,-2.04397 3.38712,-3.27036 0,-1.86874 -1.40154,-3.21199 -3.21192,-3.21199 -1.63518,0 -3.27036,0.9928 -3.27036,3.38719 0,5.48953 6.07354,9.0519 13.13983,9.0519 8.1175,0 13.7239,-5.43114 13.7239,-11.27109 0,-4.5552 -3.7376,-9.1103 -10.1615,-10.4534 6.1319,-2.2192 8.3511,-6.5992 8.3511,-10.1615 0,-4.6136 -5.3143,-8.0592 -11.7967,-8.0592 -6.48235,0 -11.44626,3.1536 -11.44626,7.8255 0,1.9856 1.28479,3.0952 3.03677,3.0952 1.81041,0 2.97829,-1.3431 2.97829,-2.9783 0,-1.6936 -1.16788,-2.92 -2.97829,-3.0368 2.04399,-2.5696 6.07359,-3.212 8.23429,-3.212 2.628,0 6.3072,1.2848 6.3072,6.3656 0,2.4527 -0.8177,5.139 -2.336,6.9494 -1.9272,2.2192 -3.5624,2.3361 -6.4824,2.5112 -1.4599,0.1169 -1.5767,0.1169 -1.8687,0.1752 -0.1169,0 -0.584,0.1168 -0.584,0.7592 0,0.8176 0.5256,0.8176 1.5183,0.8176 z"
             transform="matrix(1,0,0,1.01103,2397.68,1660)"
             id="path311" /><path
             d="m 12.7894,-21.783 c 0,-2.0439 -1.6352,-3.3871 -3.32873,-3.3871 -2.04395,0 -3.38714,1.6352 -3.38714,3.3287 0,2.0441 1.63519,3.3872 3.32877,3.3872 2.0439,0 3.3871,-1.6351 3.3871,-3.3288 z m 0,18.45424 c 0,-2.04398 -1.6352,-3.38717 -3.32873,-3.38717 -2.04395,0 -3.38714,1.63518 -3.38714,3.32877 C 6.07353,-1.34319 7.70872,0 9.4023,0 c 2.0439,0 3.3871,-1.63518 3.3871,-3.32876 z"
             transform="matrix(1,0,0,1.01103,2430.81,1660)"
             id="path313" /><path
             d="M 30.8933,-9.57749 V -11.6799 H 24.4109 V -37.726 c 0,-1.2264 0,-1.6351 -1.2848,-1.6351 -0.7007,0 -0.9344,0 -1.5184,0.8175 L 2.27757,-11.6799 v 2.10241 H 19.447 v 4.78874 c 0,1.98558 0,2.68637 -4.7304,2.68637 H 13.1399 V 0 c 2.9199,-0.116799 6.6574,-0.233597 8.7598,-0.233597 2.1609,0 5.8984,0.116798 8.8183,0.233597 v -2.10238 h -1.5767 c -4.7304,0 -4.7304,-0.70079 -4.7304,-2.68637 V -9.57749 Z M 19.8558,-33.0541 v 21.3742 H 4.43835 Z"
             transform="matrix(1,0,0,1.01103,2449.63,1660)"
             id="path315" /></g></g></g><g
       clip-path="url(#clip7)"
       id="g335"><g
         clip-path="url(#clip8)"
         id="g333"><g
           clip-path="url(#clip9)"
           id="g331"><path
             d="m 41.8263,-31.0804 c 0.4959,-1.1573 0.8266,-1.7359 6.1169,-1.7359 v -3.885 c -2.0665,0.1653 -4.4637,0.248 -6.5302,0.248 -2.0666,0 -5.7862,-0.1654 -7.5221,-0.248 v 3.885 c 1.5705,0 3.9677,0.248 3.9677,0.9093 0,0.0826 -0.0826,0.248 -0.4133,0.9919 l -9.5887,20.6652 -10.4979,-22.5664 h 4.4637 v -3.885 c -2.7278,0.1653 -10.1673,0.248 -10.2499,0.248 -2.31447,0 -6.03423,-0.1654 -9.42332,-0.248 v 3.885 H 7.43946 L 21.9051,-1.73587 c 0.9919,2.066513 2.0665,2.066513 3.1411,2.066513 1.4052,0 2.2318,-0.2479823 3.0584,-1.983853 z"
             transform="matrix(1.00928,0,0,1,2698.24,1645.6)"
             id="path323" /><path
             d="m 30.6093,-9.48944 v -2.08306 h -6.4228 v -25.8067 c 0,-1.2151 0,-1.6201 -1.273,-1.6201 -0.6943,0 -0.9258,0 -1.5044,0.8101 L 2.25664,-11.5725 v 2.08306 H 19.2682 v 4.74471 c 0,1.96733 0,2.66168 -4.6869,2.66168 H 13.0191 V 0 c 2.8931,-0.115725 6.5962,-0.23145 8.6793,-0.23145 2.141,0 5.8441,0.115725 8.7372,0.23145 v -2.08305 h -1.5622 c -4.6869,0 -4.6869,-0.69435 -4.6869,-2.66168 V -9.48944 Z M 19.6733,-32.7502 v 21.1777 H 4.39754 Z"
             transform="matrix(1.00928,0,0,1,2748.68,1658)"
             id="path325" /><path
             d="m 12.6719,-21.5827 c 0,-2.0252 -1.6202,-3.356 -3.29821,-3.356 -2.02515,0 -3.356,1.6201 -3.356,3.2981 0,2.0253 1.62016,3.356 3.29817,3.356 2.02514,0 3.35604,-1.6201 3.35604,-3.2981 z m 0,18.28454 c 0,-2.02519 -1.6202,-3.35603 -3.29821,-3.35603 -2.02515,0 -3.356,1.62015 -3.356,3.29817 C 6.01769,-1.33084 7.63785,0 9.31586,0 11.341,0 12.6719,-1.62015 12.6719,-3.29816 Z"
             transform="matrix(1.00928,0,0,1,2781.81,1658)"
             id="path327" /><path
             d="m 8.96871,-32.2873 c 2.95089,0.7522 4.68689,0.7522 5.61259,0.7522 7.6379,0 12.1512,-5.2075 12.1512,-6.0755 0,-0.6365 -0.4051,-0.8101 -0.6944,-0.8101 -0.1158,0 -0.2314,0 -0.4629,0.1736 -1.3887,0.5208 -4.4554,1.678 -8.7372,1.678 -1.6202,0 -4.6869,-0.1157 -8.44793,-1.5623 -0.57864,-0.2893 -0.69436,-0.2893 -0.75222,-0.2893 -0.75222,0 -0.75222,0.6365 -0.75222,1.5623 v 17.0694 c 0,0.9837 0,1.6781 0.9258,1.6781 0.52073,0 0.57864,-0.1158 1.15728,-0.8101 2.48809,-3.1825 6.01769,-3.6454 8.04289,-3.6454 3.4717,0 5.034,2.7774 5.3233,3.2403 1.0415,1.9095 1.3887,4.1083 1.3887,7.4643 0,1.7359 0,5.14976 -1.7359,7.6957 -1.4465,2.08305 -3.9346,3.47175 -6.7699,3.47175 -3.761,0 -7.63782,-2.08305 -9.08438,-5.90197 2.19874,0.17359 3.29818,-1.27297 3.29818,-2.83528 0,-2.488 -2.14093,-2.9509 -2.89314,-2.9509 -0.11573,0 -2.89313,0 -2.89313,3.12447 0,5.20766 4.74474,10.41528 11.68827,10.41528 7.4063,0 13.8869,-5.49694 13.8869,-12.78755 0,-6.5385 -4.9761,-12.5562 -12.151,-12.5562 -2.546,0 -5.5548,0.6364 -8.10079,2.8353 z"
             transform="matrix(1.00928,0,0,1,2800.63,1658)"
             id="path329" /></g></g></g><g
       clip-path="url(#clip10)"
       id="g349"><g
         clip-path="url(#clip11)"
         id="g347"><g
           clip-path="url(#clip12)"
           id="g345"><path
             d="m 42.2145,-31.3689 c 0.5006,-1.168 0.8343,-1.752 6.1737,-1.752 v -3.9211 c -2.0857,0.1669 -4.5051,0.2503 -6.5909,0.2503 -2.0857,0 -5.8399,-0.1668 -7.5919,-0.2503 v 3.9211 c 1.5851,0 4.0046,0.2503 4.0046,0.9177 0,0.0834 -0.0834,0.2503 -0.4171,1.0012 l -9.6777,20.8569 -10.5954,-22.7758 h 4.5052 v -3.9211 c -2.7532,0.1669 -10.2617,0.2503 -10.3451,0.2503 -2.33594,0 -6.09023,-0.1668 -9.51077,-0.2503 v 3.9211 H 7.50851 L 22.1084,-1.75198 c 1.0011,2.085692 2.0857,2.085692 3.1702,2.085692 1.4183,0 2.2526,-0.2502841 3.0869,-2.002272 z"
             transform="matrix(1,0,0,1.01103,1549.24,1397.35)"
             id="path337" /><path
             d="m 30.1342,-18.6295 c 0,-6.4239 -0.7592,-11.0374 -3.4456,-15.1254 -1.8104,-2.6864 -5.4312,-5.0224 -10.1032,-5.0224 -13.54863,0 -13.54863,15.9431 -13.54863,20.1478 0,4.2047 0,19.79749 13.54863,19.79749 13.5487,0 13.5488,-15.59269 13.5488,-19.79749 z M 16.5854,-0.467196 c -2.6863,0 -6.2487,-1.576794 -7.41671,-6.365544 -0.81756,-3.44556 -0.81756,-8.23436 -0.81756,-12.55596 0,-4.2631 0,-8.7015 0.87601,-11.9134 1.22636,-4.6136 4.96396,-5.84 7.35826,-5.84 3.1536,0 6.1904,1.9272 7.2416,5.3143 0.9344,3.1536 0.9928,7.3584 0.9928,12.4391 0,4.3216 0,8.6432 -0.7592,12.32236 -1.168,5.31436 -5.1391,6.599144 -7.4752,6.599144 z"
             transform="matrix(1,0,0,1.01103,1599.68,1410)"
             id="path339" /><path
             d="m 12.7895,-21.7831 c 0,-2.0439 -1.6352,-3.3871 -3.32881,-3.3871 -2.04395,0 -3.38714,1.6352 -3.38714,3.3288 0,2.044 1.63519,3.3871 3.32878,3.3871 2.04397,0 3.38717,-1.6351 3.38717,-3.3288 z m 0,18.45433 c 0,-2.04399 -1.6352,-3.38718 -3.32881,-3.38718 -2.04395,0 -3.38714,1.63519 -3.38714,3.32878 C 6.07355,-1.34319 7.70874,0 9.40233,0 11.4463,0 12.7895,-1.63519 12.7895,-3.32877 Z"
             transform="matrix(1,0,0,1.01103,1632.81,1410)"
             id="path341" /><path
             d="m 29.4917,-10.6287 h -1.9856 c -0.1751,1.28474 -0.7591,4.73035 -1.5183,5.31435 -0.4672,0.35039 -4.9639,0.35039 -5.7816,0.35039 H 9.46069 c 6.13201,-5.43114 8.17591,-7.06634 11.67991,-9.81104 4.3216,-3.4456 8.3511,-7.0664 8.3511,-12.6143 0,-7.0664 -6.1903,-11.388 -13.6655,-11.388 -7.24144,0 -12.14703,5.0808 -12.14703,10.4535 0,2.9784 2.51118,3.2704 3.09517,3.2704 1.40159,0 3.09518,-0.9928 3.09518,-3.0951 0,-1.0512 -0.40883,-3.0952 -3.44558,-3.0952 1.81039,-4.1464 5.78156,-5.4312 8.52636,-5.4312 5.8399,0 8.8767,4.5551 8.8767,9.2856 0,5.0807 -3.6208,9.1103 -5.4895,11.2126 L 4.26317,-2.27758 C 3.67917,-1.75198 3.67917,-1.63519 3.67917,0 H 27.7398 Z"
             transform="matrix(1,0,0,1.01103,1651.63,1410)"
             id="path343" /></g></g></g><g
       clip-path="url(#clip13)"
       id="g363"><g
         clip-path="url(#clip14)"
         id="g361"><g
           clip-path="url(#clip15)"
           id="g359"><path
             d="m 41.8266,-31.0806 c 0.496,-1.1573 0.8266,-1.7359 6.1169,-1.7359 v -3.8851 c -2.0665,0.1653 -4.4637,0.248 -6.5302,0.248 -2.0666,0 -5.7863,-0.1653 -7.5222,-0.248 v 3.8851 c 1.5706,0 3.9678,0.248 3.9678,0.9092 0,0.0827 -0.0827,0.248 -0.4133,0.992 L 27.8568,-10.25 17.3588,-32.8165 h 4.4638 v -3.8851 c -2.7278,0.1653 -10.1674,0.248 -10.25,0.248 -2.3145,0 -6.03429,-0.1653 -9.4234,-0.248 v 3.8851 H 7.43952 L 21.9052,-1.73588 c 0.992,2.066525 2.0666,2.066525 3.1412,2.066525 1.4052,0 2.2318,-0.2479837 3.0585,-1.983875 z"
             transform="matrix(1.00927,0,0,1,2333.24,1114.6)"
             id="path351" /><path
             d="m 29.2207,-10.531 h -1.9673 c -0.1736,1.2729 -0.7522,4.68685 -1.5044,5.26548 -0.4629,0.34718 -4.9183,0.34718 -5.7285,0.34718 H 9.37376 c 6.07564,-5.38126 8.10084,-7.00136 11.57254,-9.72096 4.2819,-3.4139 8.2744,-7.0014 8.2744,-12.4984 0,-7.0014 -6.1334,-11.2833 -13.5399,-11.2833 -7.17492,0 -12.03544,5.0341 -12.03544,10.3575 0,2.951 2.48811,3.2403 3.06673,3.2403 1.38872,0 3.06674,-0.9837 3.06674,-3.0667 0,-1.0415 -0.40507,-3.0668 -3.41391,-3.0668 1.79375,-4.1082 5.72838,-5.3812 8.44798,-5.3812 5.7863,0 8.7952,4.5133 8.7952,9.2002 0,5.0341 -3.5876,9.0267 -5.4391,11.1096 L 4.22399,-2.25665 C 3.64536,-1.73588 3.64536,-1.62016 3.64536,0 H 27.4849 Z"
             transform="matrix(1.00927,0,0,1,2383.68,1127)"
             id="path353" /><path
             d="m 12.6719,-21.5829 c 0,-2.0252 -1.6201,-3.356 -3.29814,-3.356 -2.02517,0 -3.35602,1.6202 -3.35602,3.2982 0,2.0252 1.62016,3.356 3.29819,3.356 2.02517,0 3.35597,-1.6201 3.35597,-3.2982 z m 0,18.28472 c 0,-2.02521 -1.6201,-3.35606 -3.29814,-3.35606 -2.02517,0 -3.35602,1.62017 -3.35602,3.29819 C 6.01774,-1.33085 7.6379,0 9.31593,0 11.3411,0 12.6719,-1.62016 12.6719,-3.29818 Z"
             transform="matrix(1.00927,0,0,1,2416.81,1127)"
             id="path355" /><path
             d="m 8.96878,-32.2875 c 2.95092,0.7522 4.68692,0.7522 5.61272,0.7522 7.6379,0 12.1512,-5.2076 12.1512,-6.0756 0,-0.6364 -0.4051,-0.8101 -0.6944,-0.8101 -0.1158,0 -0.2314,0 -0.4629,0.1737 -1.3887,0.5207 -4.4555,1.678 -8.7373,1.678 -1.6202,0 -4.6869,-0.1158 -8.44796,-1.5624 -0.57865,-0.2893 -0.69437,-0.2893 -0.75224,-0.2893 -0.75222,0 -0.75222,0.6366 -0.75222,1.5623 v 17.0696 c 0,0.9837 0,1.6781 0.92581,1.6781 0.52073,0 0.57865,-0.1158 1.15729,-0.8102 2.48802,-3.1824 6.01772,-3.6453 8.04292,-3.6453 3.4717,0 5.0341,2.7774 5.3234,3.2403 1.0415,1.9095 1.3887,4.1083 1.3887,7.4643 0,1.7359 0,5.14981 -1.7359,7.69577 -1.4465,2.08306 -3.9347,3.471775 -6.77,3.471775 -3.7611,0 -7.63786,-2.083065 -9.08443,-5.902015 2.19875,0.17359 3.2982,-1.27298 3.2982,-2.8353 0,-2.48803 -2.14094,-2.95093 -2.89316,-2.95093 -0.11573,0 -2.89315,0 -2.89315,3.1245 0,5.2077 4.74478,10.41536 11.68834,10.41536 7.4064,0 13.887,-5.49698 13.887,-12.78766 0,-6.5386 -4.9762,-12.5563 -12.1511,-12.5563 -2.546,0 -5.5549,0.6365 -8.10082,2.8353 z"
             transform="matrix(1.00927,0,0,1,2435.63,1127)"
             id="path357" /></g></g></g><g
       clip-path="url(#clip16)"
       id="g377"><g
         clip-path="url(#clip17)"
         id="g375"><g
           clip-path="url(#clip18)"
           id="g373"><path
             d="m 41.8266,-31.0806 c 0.496,-1.1573 0.8266,-1.7359 6.1169,-1.7359 v -3.8851 c -2.0665,0.1653 -4.4637,0.248 -6.5302,0.248 -2.0666,0 -5.7863,-0.1653 -7.5222,-0.248 v 3.8851 c 1.5706,0 3.9678,0.248 3.9678,0.9092 0,0.0827 -0.0827,0.248 -0.4133,0.992 L 27.8568,-10.25 17.3588,-32.8165 h 4.4638 v -3.8851 c -2.7278,0.1653 -10.1674,0.248 -10.25,0.248 -2.3145,0 -6.03429,-0.1653 -9.4234,-0.248 v 3.8851 H 7.43952 L 21.9052,-1.73588 c 0.992,2.066525 2.0666,2.066525 3.1412,2.066525 1.4052,0 2.2318,-0.2479837 3.0585,-1.983875 z"
             transform="matrix(1.00927,0,0,1,2523.24,1385.6)"
             id="path365" /><path
             d="m 15.7966,-19.3262 c 4.5133,0 7.7536,3.1246 7.7536,9.3159 0,7.17501 -4.1661,9.315945 -7.5221,9.315945 -2.3146,0 -7.40656,-0.636495 -9.83677,-4.050405 2.71953,-0.11572 3.35601,-2.0252 3.35601,-3.24032 0,-1.85158 -1.38867,-3.18242 -3.18242,-3.18242 -1.62016,0 -3.24032,0.9836 -3.24032,3.35601 0,5.43911 6.01775,8.96875 13.0191,8.96875 8.043,0 13.5978,-5.38125 13.5978,-11.16756 0,-4.5133 -3.7032,-9.0266 -10.0681,-10.3574 6.0756,-2.1988 8.2744,-6.5385 8.2744,-10.0681 0,-4.5713 -5.2655,-7.9852 -11.6883,-7.9852 -6.42284,0 -11.34116,3.1246 -11.34116,7.7537 0,1.9673 1.27299,3.0667 3.00887,3.0667 1.79378,0 2.95099,-1.3308 2.95099,-2.951 0,-1.678 -1.15721,-2.8931 -2.95099,-3.0089 2.02519,-2.5459 6.01779,-3.1824 8.15869,-3.1824 2.6038,0 6.2492,1.2729 6.2492,6.3071 0,2.4302 -0.8101,5.0918 -2.3146,6.8856 -1.9095,2.1988 -3.5295,2.3145 -6.4228,2.4881 -1.4465,0.1158 -1.5622,0.1158 -1.8515,0.1736 -0.1158,0 -0.5787,0.1157 -0.5787,0.7522 0,0.8101 0.5208,0.8101 1.5044,0.8101 z"
             transform="matrix(1.00927,0,0,1,2573.68,1398)"
             id="path367" /><path
             d="m 12.6719,-21.5829 c 0,-2.0252 -1.6201,-3.356 -3.29814,-3.356 -2.02517,0 -3.35602,1.6202 -3.35602,3.2982 0,2.0252 1.62016,3.356 3.29819,3.356 2.02517,0 3.35597,-1.6201 3.35597,-3.2982 z m 0,18.28472 c 0,-2.02521 -1.6201,-3.35606 -3.29814,-3.35606 -2.02517,0 -3.35602,1.62017 -3.35602,3.29819 C 6.01774,-1.33085 7.6379,0 9.31593,0 11.3411,0 12.6719,-1.62016 12.6719,-3.29818 Z"
             transform="matrix(1.00927,0,0,1,2606.81,1398)"
             id="path369" /><path
             d="m 8.96878,-32.2875 c 2.95092,0.7522 4.68692,0.7522 5.61272,0.7522 7.6379,0 12.1512,-5.2076 12.1512,-6.0756 0,-0.6364 -0.4051,-0.8101 -0.6944,-0.8101 -0.1158,0 -0.2314,0 -0.4629,0.1737 -1.3887,0.5207 -4.4555,1.678 -8.7373,1.678 -1.6202,0 -4.6869,-0.1158 -8.44796,-1.5624 -0.57865,-0.2893 -0.69437,-0.2893 -0.75224,-0.2893 -0.75222,0 -0.75222,0.6366 -0.75222,1.5623 v 17.0696 c 0,0.9837 0,1.6781 0.92581,1.6781 0.52073,0 0.57865,-0.1158 1.15729,-0.8102 2.48802,-3.1824 6.01772,-3.6453 8.04292,-3.6453 3.4717,0 5.0341,2.7774 5.3234,3.2403 1.0415,1.9095 1.3887,4.1083 1.3887,7.4643 0,1.7359 0,5.14981 -1.7359,7.69577 -1.4465,2.08306 -3.9347,3.471775 -6.77,3.471775 -3.7611,0 -7.63786,-2.083065 -9.08443,-5.902015 2.19875,0.17359 3.2982,-1.27298 3.2982,-2.8353 0,-2.48803 -2.14094,-2.95093 -2.89316,-2.95093 -0.11573,0 -2.89315,0 -2.89315,3.1245 0,5.2077 4.74478,10.41536 11.68834,10.41536 7.4064,0 13.887,-5.49698 13.887,-12.78766 0,-6.5386 -4.9762,-12.5563 -12.1511,-12.5563 -2.546,0 -5.5549,0.6365 -8.10082,2.8353 z"
             transform="matrix(1.00927,0,0,1,2625.63,1398)"
             id="path371" /></g></g></g><g
       clip-path="url(#clip19)"
       id="g391"><g
         clip-path="url(#clip20)"
         id="g389"><g
           clip-path="url(#clip21)"
           id="g387"><path
             d="m 42.2145,-31.3689 c 0.5006,-1.168 0.8343,-1.752 6.1737,-1.752 v -3.9211 c -2.0857,0.1669 -4.5051,0.2503 -6.5909,0.2503 -2.0857,0 -5.8399,-0.1668 -7.5919,-0.2503 v 3.9211 c 1.5851,0 4.0046,0.2503 4.0046,0.9177 0,0.0834 -0.0834,0.2503 -0.4171,1.0012 l -9.6777,20.8569 -10.5954,-22.7758 h 4.5052 v -3.9211 c -2.7532,0.1669 -10.2617,0.2503 -10.3451,0.2503 -2.33594,0 -6.09023,-0.1668 -9.51077,-0.2503 v 3.9211 H 7.50851 L 22.1084,-1.75198 c 1.0011,2.085692 2.0857,2.085692 3.1702,2.085692 1.4183,0 2.2526,-0.2502841 3.0869,-2.002272 z"
             transform="matrix(1,0,0,1.01103,2055.24,1042.35)"
             id="path379" /><path
             d="m 30.1342,-18.6295 c 0,-6.4239 -0.7592,-11.0374 -3.4456,-15.1254 -1.8104,-2.6864 -5.4312,-5.0224 -10.1032,-5.0224 -13.54863,0 -13.54863,15.9431 -13.54863,20.1478 0,4.2047 0,19.79749 13.54863,19.79749 13.5487,0 13.5488,-15.59269 13.5488,-19.79749 z M 16.5854,-0.467196 c -2.6863,0 -6.2487,-1.576794 -7.41671,-6.365544 -0.81756,-3.44556 -0.81756,-8.23436 -0.81756,-12.55596 0,-4.2631 0,-8.7015 0.87601,-11.9134 1.22636,-4.6136 4.96396,-5.84 7.35826,-5.84 3.1536,0 6.1904,1.9272 7.2416,5.3143 0.9344,3.1536 0.9928,7.3584 0.9928,12.4391 0,4.3216 0,8.6432 -0.7592,12.32236 -1.168,5.31436 -5.1391,6.599144 -7.4752,6.599144 z"
             transform="matrix(1,0,0,1.01103,2105.68,1055)"
             id="path381" /><path
             d="m 12.7895,-21.7831 c 0,-2.0439 -1.6352,-3.3871 -3.32881,-3.3871 -2.04395,0 -3.38714,1.6352 -3.38714,3.3288 0,2.044 1.63519,3.3871 3.32878,3.3871 2.04397,0 3.38717,-1.6351 3.38717,-3.3288 z m 0,18.45433 c 0,-2.04399 -1.6352,-3.38718 -3.32881,-3.38718 -2.04395,0 -3.38714,1.63519 -3.38714,3.32878 C 6.07355,-1.34319 7.70874,0 9.40233,0 11.4463,0 12.7895,-1.63519 12.7895,-3.32877 Z"
             transform="matrix(1,0,0,1.01103,2138.81,1055)"
             id="path383" /><path
             d="m 9.05195,-32.587 c 2.97835,0.7592 4.73035,0.7592 5.66475,0.7592 7.7087,0 12.2639,-5.2559 12.2639,-6.1319 0,-0.6424 -0.4088,-0.8176 -0.7008,-0.8176 -0.1169,0 -0.2336,0 -0.4672,0.1752 -1.4016,0.5256 -4.4968,1.6936 -8.8183,1.6936 -1.6352,0 -4.7304,-0.1168 -8.52635,-1.5768 -0.58402,-0.292 -0.70081,-0.292 -0.75921,-0.292 -0.7592,0 -0.7592,0.6424 -0.7592,1.5768 v 17.2278 c 0,0.9929 0,1.6937 0.93439,1.6937 0.52557,0 0.58402,-0.1168 1.16802,-0.8177 2.51115,-3.2119 6.07355,-3.6791 8.11745,-3.6791 3.504,0 5.0808,2.8031 5.3729,3.2703 1.0511,1.9272 1.4015,4.1464 1.4015,7.5336 0,1.752 0,5.19756 -1.752,7.76714 -1.4599,2.10237 -3.9712,3.503966 -6.8327,3.503966 -3.796,0 -7.70876,-2.102386 -9.16875,-5.956756 2.21915,0.1752 3.32879,-1.28478 3.32879,-2.86159 0,-2.51116 -2.1608,-2.97836 -2.91999,-2.97836 -0.1168,0 -2.91998,0 -2.91998,3.15354 0,5.256 4.78878,10.51195 11.79673,10.51195 7.4751,0 14.0158,-5.54796 14.0158,-12.90629 0,-6.5992 -5.0223,-12.6727 -12.2638,-12.6727 -2.5696,0 -5.6064,0.6424 -8.17595,2.8616 z"
             transform="matrix(1,0,0,1.01103,2157.63,1055)"
             id="path385" /></g></g></g><g
       clip-path="url(#clip22)"
       id="g405"><g
         clip-path="url(#clip23)"
         id="g403"><g
           clip-path="url(#clip24)"
           id="g401"><path
             d="m 41.8263,-31.0804 c 0.4959,-1.1573 0.8266,-1.7359 6.1169,-1.7359 v -3.885 c -2.0665,0.1653 -4.4637,0.248 -6.5302,0.248 -2.0666,0 -5.7862,-0.1654 -7.5221,-0.248 v 3.885 c 1.5705,0 3.9677,0.248 3.9677,0.9093 0,0.0826 -0.0826,0.248 -0.4133,0.9919 l -9.5887,20.6652 -10.4979,-22.5664 h 4.4637 v -3.885 c -2.7278,0.1653 -10.1673,0.248 -10.2499,0.248 -2.31447,0 -6.03423,-0.1654 -9.42332,-0.248 v 3.885 H 7.43946 L 21.9051,-1.73587 c 0.9919,2.066513 2.0665,2.066513 3.1411,2.066513 1.4052,0 2.2318,-0.2479823 3.0584,-1.983853 z"
             transform="matrix(1.00928,0,0,1,1355.24,1645.6)"
             id="path393" /><path
             d="m 29.8571,-18.4581 c 0,-6.3649 -0.7522,-10.936 -3.4139,-14.9864 -1.7938,-2.6617 -5.3813,-4.9762 -10.0103,-4.9762 -13.42405,0 -13.42405,15.7965 -13.42405,19.9626 0,4.166 0,19.61535 13.42405,19.61535 13.4241,0 13.4242,-15.44925 13.4242,-19.61535 z M 16.4329,-0.4629 c -2.6616,0 -6.1913,-1.56229 -7.34853,-6.30701 -0.81004,-3.41389 -0.81004,-8.15859 -0.81004,-12.44049 0,-4.2239 0,-8.6214 0.86796,-11.8039 1.21511,-4.5711 4.91831,-5.7862 7.29061,-5.7862 3.1246,0 6.1335,1.9094 7.175,5.2654 0.9258,3.1246 0.9837,7.2907 0.9837,12.3247 0,4.2819 0,8.5637 -0.7522,12.20904 -1.1573,5.26549 -5.0919,6.53846 -7.4065,6.53846 z"
             transform="matrix(1.00928,0,0,1,1405.68,1658)"
             id="path395" /><path
             d="m 12.6719,-21.5827 c 0,-2.0252 -1.6202,-3.356 -3.29821,-3.356 -2.02515,0 -3.356,1.6201 -3.356,3.2981 0,2.0253 1.62016,3.356 3.29817,3.356 2.02514,0 3.35604,-1.6201 3.35604,-3.2981 z m 0,18.28454 c 0,-2.02519 -1.6202,-3.35603 -3.29821,-3.35603 -2.02515,0 -3.356,1.62015 -3.356,3.29817 C 6.01769,-1.33084 7.63785,0 9.31586,0 11.341,0 12.6719,-1.62015 12.6719,-3.29816 Z"
             transform="matrix(1.00928,0,0,1,1438.81,1658)"
             id="path397" /><path
             d="m 19.3839,-36.8005 c 0,-1.5623 -0.1157,-1.6202 -1.7359,-1.6202 -3.7031,3.6454 -8.96861,3.7032 -11.341,3.7032 v 2.0831 c 1.38871,0 5.2077,0 8.3901,-1.6202 v 29.50987 c 0,1.90947 0,2.66168 -5.7863,2.66168 H 6.71204 V 0 c 1.04153,-0.0578625 8.15866,-0.23145 10.29956,-0.23145 1.7937,0 9.0844,0.1735875 10.3573,0.23145 v -2.08305 h -2.1988 c -5.7862,0 -5.7862,-0.75221 -5.7862,-2.66168 z"
             transform="matrix(1.00928,0,0,1,1457.63,1658)"
             id="path399" /></g></g></g><g
       clip-path="url(#clip25)"
       id="g419"><g
         clip-path="url(#clip26)"
         id="g417"><g
           clip-path="url(#clip27)"
           id="g415"><path
             d="m 41.8263,-31.0804 c 0.4959,-1.1573 0.8266,-1.7359 6.1169,-1.7359 v -3.885 c -2.0665,0.1653 -4.4637,0.248 -6.5302,0.248 -2.0666,0 -5.7862,-0.1654 -7.5221,-0.248 v 3.885 c 1.5705,0 3.9677,0.248 3.9677,0.9093 0,0.0826 -0.0826,0.248 -0.4133,0.9919 l -9.5887,20.6652 -10.4979,-22.5664 h 4.4637 v -3.885 c -2.7278,0.1653 -10.1673,0.248 -10.2499,0.248 -2.31447,0 -6.03423,-0.1654 -9.42332,-0.248 v 3.885 H 7.43946 L 21.9051,-1.73587 c 0.9919,2.066513 2.0665,2.066513 3.1411,2.066513 1.4052,0 2.2318,-0.2479823 3.0584,-1.983853 z"
             transform="matrix(1.00928,0,0,1,1706.24,1645.6)"
             id="path407" /><path
             d="m 19.3839,-36.8005 c 0,-1.5623 -0.1157,-1.6202 -1.7359,-1.6202 -3.7031,3.6454 -8.96861,3.7032 -11.341,3.7032 v 2.0831 c 1.38871,0 5.2077,0 8.3901,-1.6202 v 29.50987 c 0,1.90947 0,2.66168 -5.7863,2.66168 H 6.71204 V 0 c 1.04153,-0.0578625 8.15866,-0.23145 10.29956,-0.23145 1.7937,0 9.0844,0.1735875 10.3573,0.23145 v -2.08305 h -2.1988 c -5.7862,0 -5.7862,-0.75221 -5.7862,-2.66168 z"
             transform="matrix(1.00928,0,0,1,1756.68,1658)"
             id="path409" /><path
             d="m 12.6719,-21.5827 c 0,-2.0252 -1.6202,-3.356 -3.29821,-3.356 -2.02515,0 -3.356,1.6201 -3.356,3.2981 0,2.0253 1.62016,3.356 3.29817,3.356 2.02514,0 3.35604,-1.6201 3.35604,-3.2981 z m 0,18.28454 c 0,-2.02519 -1.6202,-3.35603 -3.29821,-3.35603 -2.02515,0 -3.356,1.62015 -3.356,3.29817 C 6.01769,-1.33084 7.63785,0 9.31586,0 11.341,0 12.6719,-1.62015 12.6719,-3.29816 Z"
             transform="matrix(1.00928,0,0,1,1789.81,1658)"
             id="path411" /><path
             d="m 29.2205,-10.531 h -1.9673 c -0.1736,1.27297 -0.7522,4.68689 -1.5044,5.26552 -0.4629,0.34717 -4.9183,0.34717 -5.7284,0.34717 H 9.37369 c 6.07561,-5.38119 8.10071,-7.00129 11.57251,-9.72089 4.2819,-3.4139 8.2743,-7.0014 8.2743,-12.4983 0,-7.0014 -6.1333,-11.2832 -13.5398,-11.2832 -7.17488,0 -12.03537,5.0341 -12.03537,10.3574 0,2.951 2.48809,3.2403 3.06671,3.2403 1.38871,0 3.06671,-0.9837 3.06671,-3.0667 0,-1.0415 -0.40506,-3.0667 -3.41388,-3.0667 1.79374,-4.1082 5.72833,-5.3813 8.44793,-5.3813 5.7862,0 8.7951,4.5133 8.7951,9.2002 0,5.034 -3.5875,9.0266 -5.4391,11.1096 L 4.22396,-2.25664 C 3.64533,-1.73587 3.64533,-1.62015 3.64533,0 H 27.4847 Z"
             transform="matrix(1.00928,0,0,1,1808.63,1658)"
             id="path413" /></g></g></g><g
       clip-path="url(#clip28)"
       id="g433"><g
         clip-path="url(#clip29)"
         id="g431"><g
           clip-path="url(#clip30)"
           id="g429"><path
             d="m 42.2145,-31.3689 c 0.5006,-1.168 0.8343,-1.752 6.1737,-1.752 v -3.9211 c -2.0857,0.1669 -4.5051,0.2503 -6.5909,0.2503 -2.0857,0 -5.8399,-0.1668 -7.5919,-0.2503 v 3.9211 c 1.5851,0 4.0046,0.2503 4.0046,0.9177 0,0.0834 -0.0834,0.2503 -0.4171,1.0012 l -9.6777,20.8569 -10.5954,-22.7758 h 4.5052 v -3.9211 c -2.7532,0.1669 -10.2617,0.2503 -10.3451,0.2503 -2.33594,0 -6.09023,-0.1668 -9.51077,-0.2503 v 3.9211 H 7.50851 L 22.1084,-1.75198 c 1.0011,2.085692 2.0857,2.085692 3.1702,2.085692 1.4183,0 2.2526,-0.2502841 3.0869,-2.002272 z"
             transform="matrix(1,0,0,1.01103,1878.24,1398.35)"
             id="path421" /><path
             d="m 19.5638,-37.1421 c 0,-1.5768 -0.1168,-1.6352 -1.752,-1.6352 -3.7375,3.6792 -9.05185,3.7376 -11.44626,3.7376 v 2.1024 c 1.4016,0 5.25596,0 8.46796,-1.6352 v 29.78374 c 0,1.92718 0,2.68637 -5.84,2.68637 H 6.77434 V 0 c 1.0512,-0.0583995 8.23436,-0.233598 10.39506,-0.233598 1.8104,0 9.1688,0.1751985 10.4536,0.233598 v -2.10239 h -2.2192 c -5.84,0 -5.84,-0.75919 -5.84,-2.68637 z"
             transform="matrix(1,0,0,1.01103,1928.68,1411)"
             id="path423" /><path
             d="m 12.7895,-21.7831 c 0,-2.0439 -1.6352,-3.3871 -3.32881,-3.3871 -2.04395,0 -3.38714,1.6352 -3.38714,3.3288 0,2.044 1.63519,3.3871 3.32878,3.3871 2.04397,0 3.38717,-1.6351 3.38717,-3.3288 z m 0,18.45433 c 0,-2.04399 -1.6352,-3.38718 -3.32881,-3.38718 -2.04395,0 -3.38714,1.63519 -3.38714,3.32878 C 6.07355,-1.34319 7.70874,0 9.40233,0 11.4463,0 12.7895,-1.63519 12.7895,-3.32877 Z"
             transform="matrix(1,0,0,1.01103,1961.81,1411)"
             id="path425" /><path
             d="m 15.9431,-19.5055 c 4.5551,0 7.8255,3.1536 7.8255,9.4023 0,7.24162 -4.2048,9.402406 -7.5919,9.402406 -2.336,0 -7.4752,-0.642396 -9.92795,-4.087966 2.74475,-0.1168 3.38713,-2.04398 3.38713,-3.27037 0,-1.86875 -1.40155,-3.21197 -3.21194,-3.21197 -1.63518,0 -3.27036,0.9928 -3.27036,3.38717 0,5.48955 6.07356,9.05192 13.13982,9.05192 8.1176,0 13.724,-5.43116 13.724,-11.27119 0,-4.5551 -3.7376,-9.1103 -10.1616,-10.4534 6.132,-2.2192 8.3512,-6.5992 8.3512,-10.1615 0,-4.6136 -5.3144,-8.0592 -11.7967,-8.0592 -6.48242,0 -11.44634,3.1536 -11.44634,7.8256 0,1.9855 1.28479,3.0951 3.03677,3.0951 1.81042,0 2.97837,-1.3431 2.97837,-2.9783 0,-1.6936 -1.16795,-2.92 -2.97837,-3.0368 2.04397,-2.5696 6.07357,-3.212 8.23437,-3.212 2.6279,0 6.3072,1.2848 6.3072,6.3656 0,2.4528 -0.8177,5.1391 -2.3361,6.9495 -1.9272,2.2192 -3.5623,2.336 -6.4824,2.5112 -1.4599,0.1168 -1.5767,0.1168 -1.8687,0.1752 -0.1168,0 -0.584,0.1168 -0.584,0.7592 0,0.8175 0.5256,0.8175 1.5184,0.8175 z"
             transform="matrix(1,0,0,1.01103,1980.63,1411)"
             id="path427" /></g></g></g><path
       d="m 2670.28,1525.17 -0.06,-18.34 h 2.29 l 0.06,18.33 z m -0.08,-25.21 -0.06,-18.33 2.29,-0.01 0.06,18.33 z m -0.09,-25.21 -0.06,-18.33 2.29,-0.01 0.06,18.33 z m -0.08,-25.21 -0.06,-18.33 2.29,-0.01 0.06,18.33 z m -0.08,-25.21 -0.06,-18.33 2.29,-0.01 0.06,18.34 z m -0.09,-25.2 -0.06,-18.34 h 2.29 l 0.07,18.33 z m -0.08,-25.21 -0.06,-18.34 h 2.29 l 0.06,18.33 z m -0.08,-25.21 -0.06,-18.33 2.29,-0.01 0.06,18.33 z m -0.09,-25.21 -0.06,-18.33 2.3,-0.01 0.06,18.33 z m -0.08,-25.21 -0.06,-18.33 2.29,-0.01 0.06,18.34 z m -0.08,-25.2 -0.06,-18.34 2.29,-0.01 0.06,18.34 z m -0.08,-25.21 -0.06,-18.34 h 2.29 l 0.06,18.33 z m -0.09,-25.21 -0.06,-18.33 2.29,-0.01 0.06,18.33 z m -0.08,-25.21 -0.06,-18.33 2.29,-0.01 0.06,18.33 z m -0.08,-25.21 -0.06,-18.33 2.29,-0.01 0.06,18.33 z m -0.09,-25.21 -0.06,-18.33 2.29,-0.01 0.07,18.34 z m -0.08,-25.2 -0.06,-18.34 h 2.29 l 0.06,18.33 z m -0.08,-25.21 -0.06,-18.34 h 2.29 l 0.06,18.33 z m -0.09,-25.21 -0.06,-18.33 2.3,-0.01 0.06,18.33 z m -0.08,-25.21 -0.06,-18.33 2.29,-0.01 0.06,18.33 z m -0.08,-25.21 -0.06,-18.33 2.29,-0.01 0.06,18.34 z m -0.08,-25.205 -0.07,-18.333 2.3,-0.008 0.06,18.333 z m -0.09,-25.208 -0.06,-18.333 2.29,-0.008 0.06,18.333 z m -0.08,-25.208 -0.06,-18.334 2.29,-0.007 0.06,18.333 z m -0.08,-25.209 -0.06,-18.333 2.29,-0.007 0.06,18.333 z m -0.09,-25.208 -0.06,-18.333 2.29,-0.008 0.06,18.334 z m -0.08,-25.208 -0.06,-18.333 2.29,-0.008 0.06,18.333 z m -0.08,-25.208 -0.06,-18.333 2.29,-0.008 0.06,18.333 z m -0.09,-25.208 -0.02,-7.418 2.29,-0.008 0.03,7.418 z M 2655.34,816.545 2669,789 l 13.84,27.454 z"
       id="path435" /><path
       d="M 0,0 0.48937,317.168"
       stroke="#000000"
       stroke-width="2.29167"
       stroke-miterlimit="8"
       stroke-dasharray="18.3333, 6.875"
       fill="none"
       fill-rule="evenodd"
       transform="matrix(-1,0,0,1,1516.49,967)"
       id="path437" /><path
       d="M 0,-1.14583 H 18.3333 V 1.14583 H 0 Z m 25.2083,0 H 43.5417 V 1.14583 H 25.2083 Z m 25.2084,0 H 68.75 V 1.14583 H 50.4167 Z m 25.2083,0 H 93.9583 V 1.14583 H 75.625 Z m 25.208,0 h 18.334 v 2.29166 h -18.334 z m 25.209,0 h 18.333 v 2.29166 h -18.333 z m 25.208,0 h 18.333 V 1.14583 H 151.25 Z m 25.208,0 h 18.334 v 2.29166 h -18.334 z m 25.209,0 H 220 v 2.29166 h -18.333 z m 25.208,0 h 18.333 v 2.29166 h -18.333 z m 25.208,0 h 18.334 v 2.29166 h -18.334 z m 25.209,0 h 18.333 v 2.29166 h -18.333 z m 25.208,0 h 18.333 V 1.14583 H 302.5 Z m 25.208,0 h 18.334 v 2.29166 h -18.334 z m 23.722,3.77903 0.003,18.3333 -2.292,4e-4 -0.003,-18.33332 z m 0.004,25.2083 0.003,18.3334 -2.292,3e-4 -0.003,-18.3333 z m 0.004,25.2084 0.003,18.3333 -2.292,4e-4 -0.003,-18.3334 z m 0.004,25.2083 0.003,18.3333 -2.291,4e-4 -0.003,-18.3333 z m 0.004,25.2088 0.003,18.333 h -2.291 l -0.003,-18.333 z m 0.005,25.208 0.003,18.333 -2.292,10e-4 -0.003,-18.334 z m 12.582,20.036 -13.596,27.577 -13.903,-27.423 z"
       transform="matrix(1,0,0,-1,1521,962.288)"
       id="path439" /><path
       d="m 1511.49,963.434 h -18.33 v -2.292 h 18.33 z m -25.2,0 h -18.34 v -2.292 h 18.34 z m -25.21,0 h -18.34 v -2.292 h 18.34 z m -25.21,0 h -18.33 v -2.292 h 18.33 z m -25.21,0 h -18.33 v -2.292 h 18.33 z m -25.21,0 h -18.33 v -2.292 h 18.33 z m -25.21,0 h -18.33 v -2.292 h 18.33 z m -25.2,0 h -18.34 v -2.292 h 18.34 z m -25.21,0 h -18.34 v -2.292 h 18.34 z m -25.21,0 h -18.33 v -2.292 h 18.33 z m -25.21,0 h -18.33 v -2.292 h 18.33 z m -25.21,0 h -18.33 v -2.292 h 18.33 z m -25.21,0 h -18.33 v -2.292 h 18.33 z m -25.2,0 h -18.34 v -2.292 h 18.34 z m -25.21,0 h -18.34 v -2.292 h 18.34 z m -25.21,0 h -18.33 v -2.292 h 18.33 z m -25.21,0 h -18.33 v -2.292 h 18.33 z m -25.21,0 h -8.17 V 950.98 h 2.29 v 11.308 l -1.14,-1.146 h 7.02 z m -8.17,-19.329 v -18.333 h 2.29 v 18.333 z m 0,-25.208 0.01,-18.334 2.29,10e-4 v 18.333 z m 0.01,-25.209 v -18.333 h 2.29 v 18.334 z m 0,-25.208 v -18.333 h 2.29 v 18.333 z m 0,-25.208 v -18.334 l 2.29,10e-4 v 18.333 z m 0,-25.209 v -9.146 h 2.29 v 9.147 z m -12.61,-4.6 L 1076,786 l 13.68,27.537 z"
       id="path441" /><path
       d="m 1844,936 2.96,349.39"
       stroke="#000000"
       stroke-width="2.29167"
       stroke-miterlimit="8"
       stroke-dasharray="18.3333, 6.875"
       fill="none"
       fill-rule="evenodd"
       id="path443" /><path
       d="m 1845.91,934.641 h -18.33 v -2.292 h 18.33 z m -25.2,0 h -18.34 v -2.292 h 18.34 z m -25.21,0 h -18.34 v -2.292 h 18.34 z m -25.21,0 h -18.33 v -2.292 h 18.33 z m -25.21,0 h -18.33 v -2.292 h 18.33 z m -25.21,0 h -18.33 v -2.292 h 18.33 z m -25.21,0 h -18.33 v -2.292 h 18.33 z m -25.2,0 h -18.34 v -2.292 h 18.34 z m -25.21,0 h -18.34 v -2.292 h 18.34 z m -25.21,0 h -18.33 v -2.292 h 18.33 z m -25.21,0 h -18.33 v -2.292 h 18.33 z m -25.21,0 h -18.33 v -2.292 h 18.33 z m -25.21,0 h -18.33 v -2.292 h 18.33 z m -25.2,0 h -18.34 v -2.292 h 18.34 z m -25.21,0 h -18.34 v -2.292 H 1493 Z m -25.21,0 h -18.33 v -2.292 h 18.33 z m -25.21,0 h -18.33 v -2.292 h 18.33 z m -25.21,0 h -18.33 v -2.292 h 18.33 z m -25.21,0 h -18.33 v -2.292 h 18.33 z m -25.2,0 h -18.34 v -2.292 h 18.34 z m -25.21,0 h -18.34 v -2.292 h 18.34 z m -25.21,0 h -18.33 v -2.292 h 18.33 z m -25.21,0 H 1273 v -2.292 h 18.33 z m -25.21,0 h -18.33 v -2.292 h 18.33 z m -25.21,0 h -17.35 v -3.274 l 2.29,0.001 v 2.128 l -1.14,-1.147 h 16.2 z m -17.34,-10.149 v -18.333 h 2.29 v 18.334 z m 0.01,-25.208 V 880.95 l 2.29,10e-4 v 18.333 z m 0.01,-25.209 v -18.333 l 2.29,0.001 v 18.333 z m 0.01,-25.208 v -18.333 h 2.29 v 18.334 z m 0.01,-25.208 v -13.744 l 2.29,0.001 v 13.743 z M 1210.96,814.352 1225,787 l 13.46,27.644 z"
       id="path445" /><path
       d="M 0,0 0.291962,26.4267"
       stroke="#000000"
       stroke-width="2.29167"
       stroke-miterlimit="8"
       stroke-dasharray="18.3333, 6.875"
       fill="none"
       fill-rule="evenodd"
       transform="matrix(-1,0,0,1,2010.29,906)"
       id="path447" /><path
       d="m 2005.25,907.114 h -18.33 v -2.292 h 18.33 z m -25.21,0 h -18.33 v -2.292 h 18.33 z m -25.21,0 h -18.33 v -2.292 h 18.33 z m -25.21,0 h -18.33 v -2.292 h 18.33 z m -25.2,0 h -18.34 v -2.292 h 18.34 z m -25.21,0 h -18.34 v -2.292 h 18.34 z m -25.21,0 h -18.33 v -2.292 H 1854 Z m -25.21,0 h -18.33 v -2.292 h 18.33 z m -25.21,0 h -18.33 v -2.292 h 18.33 z m -25.21,0 h -18.33 v -2.292 h 18.33 z m -25.2,0 h -18.34 v -2.292 h 18.34 z m -25.21,0 h -18.34 v -2.292 h 18.34 z m -25.21,0 h -18.33 v -2.292 h 18.33 z m -25.21,0 h -18.33 v -2.292 h 18.33 z m -25.21,0 H 1634 v -2.292 h 18.33 z m -25.21,0 h -18.33 v -2.292 h 18.33 z m -25.2,0 h -18.34 v -2.292 h 18.34 z m -25.21,0 h -18.34 v -2.292 h 18.34 z m -25.21,0 h -18.33 v -2.292 h 18.33 z m -25.21,0 h -18.33 v -2.292 h 18.33 z m -25.21,0 h -18.33 v -2.292 h 18.33 z m -25.21,0 h -18.33 v -2.292 h 18.33 z m -25.2,0 h -18.34 v -2.292 h 18.34 z m -25.21,0 h -18.34 v -2.292 h 18.34 z m -25.21,0 h -18.33 v -2.292 h 18.33 z m -22.4,-5.105 v -18.333 h 2.3 v 18.333 z m 0,-25.208 v -18.334 h 2.3 v 18.334 z m 0,-25.209 v -18.333 h 2.3 v 18.333 z m 0,-25.208 v -16.467 h 2.3 v 16.467 z M 1365.25,814.5 1379,787 l 13.75,27.5 z"
       id="path449" /><path
       d="m 2298,878 2.25,271.09"
       stroke="#000000"
       stroke-width="2.29167"
       stroke-miterlimit="8"
       stroke-dasharray="18.3333, 6.875"
       fill="none"
       fill-rule="evenodd"
       id="path451" /><path
       d="m 2267.52,879.034 h -18.33 v -2.292 h 18.33 z m -25.21,0 h -18.33 v -2.292 h 18.33 z m -25.21,0 h -18.33 v -2.292 h 18.33 z m -25.21,0 h -18.33 v -2.292 h 18.33 z m -25.2,0 h -18.34 v -2.292 h 18.34 z m -25.21,0 h -18.34 v -2.292 h 18.34 z m -25.21,0 h -18.33 v -2.292 h 18.33 z m -25.21,0 h -18.33 v -2.292 h 18.33 z m -25.21,0 h -18.33 v -2.292 h 18.33 z m -25.21,0 h -18.33 v -2.292 h 18.33 z m -25.2,0 h -18.34 v -2.292 h 18.34 z m -25.21,0 h -18.34 v -2.292 h 18.34 z m -25.21,0 h -18.33 v -2.292 h 18.33 z m -25.21,0 h -18.33 v -2.292 h 18.33 z m -25.21,0 h -18.33 v -2.292 h 18.33 z m -25.21,0 h -18.33 v -2.292 h 18.33 z m -25.2,0 h -18.34 v -2.292 h 18.34 z m -25.21,0 h -18.34 v -2.292 h 18.34 z m -25.21,0 h -18.33 v -2.292 h 18.33 z m -25.21,0 h -18.33 v -2.292 h 18.33 z m -25.21,0 h -18.33 v -2.292 h 18.33 z m -25.21,0 h -18.33 v -2.292 h 18.33 z m -25.2,0 h -18.34 v -2.292 h 18.34 z m -25.21,0 h -18.34 v -2.292 h 18.34 z m -25.21,0 h -18.33 v -2.292 h 18.33 z m -25.21,0 h -18.33 v -2.292 h 18.33 z m -25.21,0 h -18.33 v -2.292 h 18.33 z m -25.21,0 h -18.33 v -2.292 h 18.33 z m -25.2,0 h -18.34 v -2.292 h 18.34 z m -25.21,0 h -10.66 v -9.965 l 2.29,0.001 v 8.818 l -1.15,-1.146 h 9.52 z m -10.66,-16.84 v -18.333 h 2.29 v 18.333 z m 0,-25.208 v -18.333 h 2.29 v 18.333 z m 0,-25.208 v -2.861 h 2.29 v 2.861 z m -12.61,1.704 L 1527,786 l 13.71,27.519 z"
       id="path453" /><path
       d="m 2278,878 20.4,0.612"
       stroke="#000000"
       stroke-width="2.29167"
       stroke-miterlimit="8"
       stroke-dasharray="18.3333, 6.875"
       fill="none"
       fill-rule="evenodd"
       id="path455" /><path
       d="M 1.14583,-4.50033e-6 1.14591,18.3333 H -1.14576 L -1.14583,4.50033e-6 Z M 1.14593,25.2083 1.146,43.5417 h -2.29166 l -7e-5,-18.3334 z m 1e-4,25.2084 7e-5,18.3333 h -2.29166 l -8e-5,-18.3333 z M 13.7503,64.3871 3.60892e-4,91.8872 -13.7497,64.3872 Z"
       transform="matrix(1,0,0,-1,2268,877.887)"
       id="path457" /><path
       d="m 2507,853 4.52,430.6"
       stroke="#000000"
       stroke-width="2.29167"
       stroke-miterlimit="8"
       stroke-dasharray="18.3333, 6.875"
       fill="none"
       fill-rule="evenodd"
       id="path459" /><path
       d="m 2507,853 c 0,0 0,0 0,0 0,0 0,0 0,0 0,0 0,0 0,0 0,0 0,0 0,0 z"
       stroke="#000000"
       stroke-width="2.29167"
       stroke-miterlimit="8"
       stroke-dasharray="18.3333, 6.875"
       fill-rule="evenodd"
       id="path461" /><path
       d="m 2416.08,853.928 h -18.34 v -2.291 h 18.34 z m -25.21,0 h -18.34 v -2.291 h 18.34 z m -25.21,0 h -18.33 v -2.291 h 18.33 z m -25.21,0 h -18.33 v -2.291 h 18.33 z m -25.21,0 h -18.33 v -2.291 h 18.33 z m -25.21,0 h -18.33 v -2.291 h 18.33 z m -25.2,0 h -18.34 v -2.291 h 18.34 z m -25.21,0 h -18.34 v -2.291 h 18.34 z m -25.21,0 h -18.33 v -2.291 h 18.33 z m -25.21,0 h -18.33 v -2.291 h 18.33 z m -25.21,0 h -18.33 v -2.291 h 18.33 z m -25.21,0 h -18.33 v -2.291 h 18.33 z m -25.2,0 h -18.34 v -2.291 h 18.34 z m -25.21,0 h -18.34 v -2.291 h 18.34 z m -25.21,0 h -18.33 v -2.291 h 18.33 z m -25.21,0 h -18.33 v -2.291 h 18.33 z m -25.21,0 h -18.33 v -2.291 h 18.33 z m -25.21,0 h -18.33 v -2.291 h 18.33 z m -25.2,0 h -18.34 v -2.291 h 18.34 z m -25.21,0 h -18.34 v -2.291 h 18.34 z m -25.21,0 h -18.33 v -2.291 h 18.33 z m -25.21,0 h -18.33 v -2.291 h 18.33 z m -25.21,0 h -18.33 v -2.291 h 18.33 z m -25.21,0 h -18.33 v -2.291 h 18.33 z m -25.2,0 h -18.34 v -2.291 h 18.34 z m -25.21,0 h -18.34 v -2.291 h 18.34 z m -25.21,0 h -18.33 v -2.291 h 18.33 z m -25.21,0 h -18.33 v -2.291 h 18.33 z m -25.21,0 h -18.33 v -2.291 h 18.33 z m -25.21,0 h -4.17 v -16.452 h 2.29 v 15.307 l -1.14,-1.146 h 3.02 z m -4.17,-23.327 v -18.333 h 2.29 v 18.333 z M 1668.26,813.504 1682,786 l 13.76,27.497 z"
       id="path463" /><path
       d="m 2425,853 81.09,0.282"
       stroke="#000000"
       stroke-width="2.29167"
       stroke-miterlimit="8"
       stroke-dasharray="18.3333, 6.875"
       fill="none"
       fill-rule="evenodd"
       id="path465" /><path
       d="M 1.14583,-6.32942e-6 1.14593,18.3333 H -1.14573 L -1.14583,6.32942e-6 Z M 1.14597,25.2083 1.14607,42.4168 H -1.1456 l -9e-5,-17.2085 z M 13.7502,37.8334 3.60892e-4,65.3334 -13.7498,37.8335 Z"
       transform="matrix(1,0,0,-1,2451,851.334)"
       id="path467" /><text
       font-family="Calibri, Calibri_MSFontService, sans-serif"
       font-weight="400"
       font-size="73px"
       transform="translate(1065.66,1095)"
       id="text469">Holographic composition</text><path
       d="m 2298,878 c 0,0 0,0 0,0 0,0 0,0 0,0 0,0 0,0 0,0 0,0 0,0 0,0 z"
       stroke="#000000"
       stroke-width="2.29167"
       stroke-miterlimit="8"
       stroke-dasharray="18.3333, 6.875"
       fill-rule="evenodd"
       id="path471" /><path
       d="m 1846,934 c 0,0 0,0 0,0 0,0 0,0 0,0 0,0 0,0 0,0 0,0 0,0 0,0 z"
       stroke="#000000"
       stroke-width="2.29167"
       stroke-miterlimit="8"
       stroke-dasharray="18.3333, 6.875"
       fill-rule="evenodd"
       id="path473" /><path
       d="m 2016.15,906.089 v 0.745 l -1.15,-1.146 h 17.59 v 2.292 h -18.74 v -1.891 z m 23.31,-0.401 h 18.34 v 2.292 h -18.34 z m 25.21,0 h 9.46 l -1.14,1.146 v -8.874 h 2.29 v 10.02 h -10.61 z m 8.32,-14.603 v -18.334 h 2.29 v 18.334 z m 0,-25.209 v -18.333 h 2.29 v 18.333 z m 0,-25.208 v -18.333 h 2.29 v 18.333 z m 0,-25.208 v -6.543 h 2.29 v 6.543 z m -12.61,-1.96 13.75,-27.5 13.75,27.5 z"
       id="path475" /><rect
       x="1900.5"
       y="934.5"
       width="213"
       height="52.999901"
       stroke="#000000"
       stroke-width="4.58333"
       stroke-miterlimit="8"
       fill="none"
       id="rect477" /><rect
       x="2193.5"
       y="1149.5"
       width="214"
       height="54"
       stroke="#000000"
       stroke-width="4.58333"
       stroke-miterlimit="8"
       fill="none"
       id="rect479" /><rect
       x="1409.5"
       y="1284.5"
       width="213"
       height="54"
       stroke="#000000"
       stroke-width="4.58333"
       stroke-miterlimit="8"
       fill="none"
       id="rect481" /><rect
       x="1242.5"
       y="1528.5"
       width="214"
       height="52.999901"
       stroke="#000000"
       stroke-width="4.58333"
       stroke-miterlimit="8"
       fill="none"
       id="rect483" /><rect
       x="1567.5"
       y="1528.5"
       width="213"
       height="52.999901"
       stroke="#000000"
       stroke-width="4.58333"
       stroke-miterlimit="8"
       fill="none"
       id="rect485" /><rect
       x="1895.5"
       y="1526.5"
       width="214"
       height="52.999901"
       stroke="#000000"
       stroke-width="4.58333"
       stroke-miterlimit="8"
       fill="none"
       id="rect487" /><rect
       x="2208.5"
       y="1526.5"
       width="213"
       height="52.999901"
       stroke="#000000"
       stroke-width="4.58333"
       stroke-miterlimit="8"
       fill="none"
       id="rect489" /><rect
       x="2528.5"
       y="1527.5"
       width="213"
       height="52.999901"
       stroke="#000000"
       stroke-width="4.58333"
       stroke-miterlimit="8"
       fill="none"
       id="rect491" /><rect
       x="1734.5"
       y="1285.5"
       width="214"
       height="52.999901"
       stroke="#000000"
       stroke-width="4.58333"
       stroke-miterlimit="8"
       fill="none"
       id="rect493" /><rect
       x="2404.5"
       y="1284.5"
       width="214"
       height="52.999901"
       stroke="#000000"
       stroke-width="4.58333"
       stroke-miterlimit="8"
       fill="none"
       id="rect495" /><path
       d="m 1823,1077 h 149.41"
       stroke="#000000"
       stroke-width="2.29167"
       stroke-miterlimit="8"
       fill="none"
       fill-rule="evenodd"
       id="path497" /></g></svg>
